<svg width="81" height="61" viewBox="0 0 81 61" fill="none" xmlns="http://www.w3.org/2000/svg">
<g clip-path="url(#clip0_102_4380)">
<path d="M0.361938 0.803223H80.0979V60.6052H0.361938V0.803223Z" fill="#00008B"/>
<path d="M5.03397 0.803223L20.2336 12.0784L35.371 0.803223H40.2299V4.66543L25.2794 15.816L40.2299 26.9043V30.7042H35.2464L20.2959 19.5536L5.40773 30.7042H0.361938V26.9666L15.2501 15.8783L0.361938 4.79002V0.803223H5.03397Z" fill="white"/>
<path d="M26.7745 18.3078L40.2299 28.2125V30.7042L23.3483 18.3078H26.7745ZM15.3124 19.5536L15.6862 21.7339L3.7258 30.7042H0.361938L15.3124 19.5536ZM40.2299 0.803223V0.990104L24.7188 12.7013L24.8434 9.9604L37.1152 0.803223H40.2299ZM0.361938 0.803223L15.2501 11.7669H11.5125L0.361938 3.41956V0.803223Z" fill="#FF0000"/>
<path d="M15.3747 0.803223V30.7042H25.3417V0.803223H15.3747ZM0.361938 10.7702V20.7372H40.2299V10.7702H0.361938Z" fill="white"/>
<path d="M0.361938 12.8259V18.8061H40.2299V12.8259H0.361938ZM17.3681 0.803223V30.7042H23.3483V0.803223H17.3681Z" fill="#FF0000"/>
<path d="M66.0192 50.2261L63.4652 50.55L63.7393 53.1041L61.8954 51.31L60.0639 53.1165L60.3131 50.5625L57.7591 50.2635L59.9144 48.8681L58.5564 46.6878L60.9983 47.4976L61.858 45.0682L62.7426 47.4852L65.172 46.6504L63.8389 48.8432L66.0068 50.2261H66.0192ZM65.5582 35.6245L65.8946 34.0048L64.6737 32.8835L66.3182 32.6967L67.0035 31.1891L67.6887 32.6967L69.3332 32.8835L68.1123 34.0048L68.4487 35.6245L67.0035 34.8022L65.5582 35.6245ZM52.5887 28.1492L50.0596 28.4233L50.2838 30.9524L48.4898 29.1459L46.6459 30.9026L46.9449 28.3735L44.4282 28.0371L46.5836 26.6915L45.2754 24.5113L47.6799 25.3585L48.577 22.9788L49.4117 25.3834L51.8287 24.5985L50.4707 26.7538L52.6011 28.1492H52.5887ZM77.9796 24.0627L75.3757 24.3991L75.6623 27.003L73.781 25.1716L71.9122 27.0155L72.1738 24.3991L69.57 24.1001L71.7752 22.6674L70.3922 20.4373L72.884 21.272L73.7561 18.8052L74.6531 21.272L77.1324 20.4123L75.762 22.6549L77.9796 24.0627ZM66.0068 13.6597L63.4278 13.9462L63.6645 16.5377L61.8331 14.6938L59.9518 16.4878L60.2508 13.9089L57.6719 13.56L59.8771 12.1896L58.544 9.95945L60.9983 10.8191L61.9078 8.38965L62.755 10.844L65.2218 10.0342L63.8389 12.2269L66.0068 13.6597ZM29.5151 48.8556L23.809 49.5284L24.3821 55.247L20.2956 51.2103L16.1842 55.2221L16.7947 49.5035L11.0886 48.7809L15.9351 45.6911L12.945 40.7824L18.377 42.6512L20.3455 37.2441L22.2766 42.6636L27.721 40.8322L24.6936 45.716L29.5276 48.8432L29.5151 48.8556Z" fill="white"/>
</g>
<defs>
<clipPath id="clip0_102_4380">
<rect width="79.736" height="59.802" fill="white" transform="translate(0.361938 0.803223)"/>
</clipPath>
</defs>
</svg>
