<svg width="81" height="60" viewBox="0 0 81 60" fill="none" xmlns="http://www.w3.org/2000/svg">
<g clip-path="url(#clip0_102_4372)">
<path fill-rule="evenodd" clip-rule="evenodd" d="M-4.62158 0.0283203H85.0814V59.8303H-4.62158V0.0283203Z" fill="#E70013"/>
<path fill-rule="evenodd" clip-rule="evenodd" d="M55.3906 29.9051C55.3906 33.9043 53.8019 37.7397 50.9741 40.5676C48.1462 43.3954 44.3108 44.9841 40.3116 44.9841C36.3124 44.9841 32.4771 43.3954 29.6492 40.5676C26.8213 37.7397 25.2327 33.9043 25.2327 29.9051C25.2327 25.906 26.8213 22.0706 29.6492 19.2427C32.4771 16.4148 36.3124 14.8262 40.3116 14.8262C44.3108 14.8262 48.1462 16.4148 50.9741 19.2427C53.8019 22.0706 55.3906 25.906 55.3906 29.9051Z" fill="white"/>
<path fill-rule="evenodd" clip-rule="evenodd" d="M40.3115 39.903C37.7174 39.8143 35.2592 38.7215 33.4555 36.8551C31.6518 34.9887 30.6436 32.4946 30.6436 29.899C30.6436 27.3034 31.6518 24.8093 33.4555 22.9429C35.2592 21.0765 37.7174 19.9837 40.3115 19.895C41.6897 19.895 43.2666 20.2221 44.3294 21.0046C37.0177 21.2733 35.1606 27.4871 35.1606 29.9866C35.1606 32.4861 36.3403 38.0575 44.3294 38.8868C43.4184 39.4708 41.6897 39.903 40.3115 39.903Z" fill="#E70013"/>
<path fill-rule="evenodd" clip-rule="evenodd" d="M49.1183 34.1106L44.5748 32.452L41.573 36.2364L41.7482 31.4125L37.2163 29.7189L41.865 28.3873L42.0635 23.5635L44.7733 27.5697L49.422 26.2849L46.4436 30.081L49.1183 34.1106Z" fill="#E70013"/>
</g>
<defs>
<clipPath id="clip0_102_4372">
<rect width="79.736" height="59.802" fill="white" transform="translate(0.361938 0.0283203)"/>
</clipPath>
</defs>
</svg>
