<svg width="80" height="61" viewBox="0 0 80 61" fill="none" xmlns="http://www.w3.org/2000/svg">
<g clip-path="url(#clip0_102_4304)">
<path d="M0.00836182 0.416016H79.7443V60.218H0.00836182V0.416016Z" fill="white"/>
<path d="M33.1486 7.05615H79.7443V13.7091H33.1486V7.05615ZM33.1486 20.3496H79.7443V26.9901H33.1486V20.3496ZM0.00836182 33.6431H79.7443V40.2836H0.00836182V33.6431ZM0.00836182 46.9241H79.7443V53.5771H0.00836182V46.9241Z" fill="#0038A8"/>
<path d="M15.8628 20.2709L16.9626 21.9132C12.4434 25.1837 15.2024 27.1176 11.9998 28.1645C13.9917 26.2206 11.6862 26.0567 13.3644 22.0051" fill="#FCD116"/>
<path d="M15.8628 20.2709L16.9626 21.9132C12.4434 25.1837 15.2024 27.1176 11.9998 28.1645C13.9917 26.2206 11.6862 26.0567 13.3644 22.0051" stroke="black" stroke-width="0.407635" stroke-miterlimit="20" stroke-linecap="square"/>
<path d="M15.077 20.7362C12.5836 24.8458 14.2189 27.1054 12.0002 28.1642" stroke="black" stroke-width="0.407635" stroke-miterlimit="20"/>
<path d="M16.6153 17.0225H18.8081L16.6153 29.0825L14.4226 17.0225H16.6153V29.0825V17.0225Z" fill="#FCD116"/>
<path d="M16.6153 17.0225H18.8081L16.6153 29.0825L14.4226 17.0225H16.6153ZM16.6153 17.0225V29.0825" stroke="black" stroke-width="0.407635" stroke-miterlimit="20"/>
<path d="M13.7866 18.7884L13.4031 20.7273C7.89495 19.8443 8.47836 23.1628 5.47356 21.6384C8.25658 21.6724 6.74218 19.9263 10.7938 18.248" fill="#FCD116"/>
<path d="M13.7866 18.7884L13.4031 20.7273C7.89495 19.8443 8.47836 23.1628 5.47356 21.6384C8.25658 21.6724 6.74218 19.9263 10.7938 18.248" stroke="black" stroke-width="0.407635" stroke-miterlimit="20" stroke-linecap="square"/>
<path d="M12.901 18.5612C8.23202 19.704 7.79052 22.458 5.47299 21.6379" stroke="black" stroke-width="0.407635" stroke-miterlimit="20"/>
<path d="M16.6153 17.0232L18.1658 18.5737L8.08758 25.5509L15.0648 15.4727L16.6153 17.0232L8.08758 25.5509L16.6153 17.0232Z" fill="#FCD116"/>
<path d="M16.6153 17.0232L18.1658 18.5737L8.08758 25.5509L15.0648 15.4727L16.6153 17.0232ZM16.6153 17.0232L8.08758 25.5509" stroke="black" stroke-width="0.407635" stroke-miterlimit="20"/>
<path d="M13.3663 16.2718L11.7241 17.3716C8.45362 12.8524 6.51966 15.6114 5.47281 12.4089C7.41671 14.4007 7.58056 12.0952 11.6322 13.7735" fill="#FCD116"/>
<path d="M13.3663 16.2718L11.7241 17.3716C8.45362 12.8524 6.51966 15.6114 5.47281 12.4089C7.41671 14.4007 7.58056 12.0952 11.6322 13.7735" stroke="black" stroke-width="0.407635" stroke-miterlimit="20" stroke-linecap="square"/>
<path d="M12.9017 15.4855C8.79209 12.9921 6.53249 14.6273 5.47364 12.4087" stroke="black" stroke-width="0.407635" stroke-miterlimit="20"/>
<path d="M16.615 17.0238V19.2165L4.55494 17.0238L16.615 14.8311V17.0238H4.55494H16.615Z" fill="#FCD116"/>
<path d="M16.615 17.0238V19.2165L4.55494 17.0238L16.615 14.8311V17.0238ZM16.615 17.0238H4.55494" stroke="black" stroke-width="0.407635" stroke-miterlimit="20"/>
<path d="M14.8497 14.1967L12.9107 13.8132C13.7937 8.30504 10.4753 8.88845 11.9996 5.88365C11.9657 8.66667 13.7118 7.15227 15.39 11.2039" fill="#FCD116"/>
<path d="M14.8497 14.1967L12.9107 13.8132C13.7937 8.30504 10.4753 8.88845 11.9996 5.88365C11.9657 8.66667 13.7118 7.15227 15.39 11.2039" stroke="black" stroke-width="0.407635" stroke-miterlimit="20" stroke-linecap="square"/>
<path d="M15.0758 13.3109C13.933 8.64193 11.1789 8.20043 11.999 5.8829" stroke="black" stroke-width="0.407635" stroke-miterlimit="20"/>
<path d="M16.6154 17.0256L15.0649 18.5761L8.08765 8.49785L18.1659 15.4751L16.6154 17.0256L8.08765 8.49785L16.6154 17.0256Z" fill="#FCD116"/>
<path d="M16.6154 17.0256L15.0649 18.5761L8.08765 8.49785L18.1659 15.4751L16.6154 17.0256ZM16.6154 17.0256L8.08765 8.49785" stroke="black" stroke-width="0.407635" stroke-miterlimit="20"/>
<path d="M17.3666 13.7745L16.2668 12.1322C20.786 8.86176 18.027 6.9278 21.2296 5.88095C19.2377 7.82485 21.5432 7.9887 19.865 12.0403" fill="#FCD116"/>
<path d="M17.3666 13.7745L16.2668 12.1322C20.786 8.86176 18.027 6.9278 21.2296 5.88095C19.2377 7.82485 21.5432 7.9887 19.865 12.0403" stroke="black" stroke-width="0.407635" stroke-miterlimit="20" stroke-linecap="square"/>
<path d="M18.1525 13.3087C20.6458 9.19913 19.0106 6.93953 21.2293 5.88069" stroke="black" stroke-width="0.407635" stroke-miterlimit="20"/>
<path d="M16.6145 17.0234H14.4218L16.6145 4.96339L18.8073 17.0234H16.6145V4.96339V17.0234Z" fill="#FCD116"/>
<path d="M16.6145 17.0234H14.4218L16.6145 4.96339L18.8073 17.0234H16.6145ZM16.6145 17.0234V4.96339" stroke="black" stroke-width="0.407635" stroke-miterlimit="20"/>
<path d="M19.4424 15.2575L19.826 13.3186C25.3341 14.2016 24.7507 10.8831 27.7555 12.4074C24.9725 12.3735 26.4869 14.1196 22.4352 15.7979" fill="#FCD116"/>
<path d="M19.4424 15.2575L19.826 13.3186C25.3341 14.2016 24.7507 10.8831 27.7555 12.4074C24.9725 12.3735 26.4869 14.1196 22.4352 15.7979" stroke="black" stroke-width="0.407635" stroke-miterlimit="20" stroke-linecap="square"/>
<path d="M20.328 15.4843C24.997 14.3414 25.4385 11.5874 27.756 12.4075" stroke="black" stroke-width="0.407635" stroke-miterlimit="20"/>
<path d="M16.6143 17.0227L15.0638 15.4722L25.142 8.495L18.1648 18.5732L16.6143 17.0227L25.142 8.495L16.6143 17.0227Z" fill="#FCD116"/>
<path d="M16.6143 17.0227L15.0638 15.4722L25.142 8.495L18.1648 18.5732L16.6143 17.0227ZM16.6143 17.0227L25.142 8.495" stroke="black" stroke-width="0.407635" stroke-miterlimit="20"/>
<path d="M19.8635 17.7751L21.5057 16.6753C24.7762 21.1945 26.7101 18.4354 27.757 21.638C25.8131 19.6461 25.6492 21.9517 21.5976 20.2734" fill="#FCD116"/>
<path d="M19.8635 17.7751L21.5057 16.6753C24.7762 21.1945 26.7101 18.4354 27.757 21.638C25.8131 19.6461 25.6492 21.9517 21.5976 20.2734" stroke="black" stroke-width="0.407635" stroke-miterlimit="20" stroke-linecap="square"/>
<path d="M20.3287 18.5614C24.4383 21.0548 26.6979 19.4196 27.7568 21.6382" stroke="black" stroke-width="0.407635" stroke-miterlimit="20"/>
<path d="M16.6147 17.0226V14.8299L28.6748 17.0226L16.6147 19.2153V17.0226H28.6748H16.6147Z" fill="#FCD116"/>
<path d="M16.6147 17.0226V14.8299L28.6748 17.0226L16.6147 19.2153V17.0226ZM16.6147 17.0226H28.6748" stroke="black" stroke-width="0.407635" stroke-miterlimit="20"/>
<path d="M18.3808 19.8526L20.3197 20.2362C19.4368 25.7443 22.7552 25.1609 21.2309 28.1657C21.2648 25.3826 19.5187 26.897 17.8404 22.8454" fill="#FCD116"/>
<path d="M18.3808 19.8526L20.3197 20.2362C19.4368 25.7443 22.7552 25.1609 21.2309 28.1657C21.2648 25.3826 19.5187 26.897 17.8404 22.8454" stroke="black" stroke-width="0.407635" stroke-miterlimit="20" stroke-linecap="square"/>
<path d="M18.1534 20.7374C19.2963 25.4064 22.0503 25.8479 21.2302 28.1654" stroke="black" stroke-width="0.407635" stroke-miterlimit="20"/>
<path d="M16.6156 17.0237L18.1661 15.4732L25.1433 25.5515L15.0651 18.5742L16.6156 17.0237L25.1433 25.5515L16.6156 17.0237Z" fill="#FCD116"/>
<path d="M16.6156 17.0237L18.1661 15.4732L25.1433 25.5515L15.0651 18.5742L16.6156 17.0237ZM16.6156 17.0237L25.1433 25.5515" stroke="black" stroke-width="0.407635" stroke-miterlimit="20"/>
<path d="M16.6147 21.0439C18.8349 21.0439 20.6347 19.2441 20.6347 17.0239C20.6347 14.8037 18.8349 13.0039 16.6147 13.0039C14.3945 13.0039 12.5947 14.8037 12.5947 17.0239C12.5947 19.2441 14.3945 21.0439 16.6147 21.0439Z" fill="#FCD116" stroke="black" stroke-width="0.407635" stroke-miterlimit="20"/>
<path d="M19.5767 15.4159C19.3208 15.7083 19.1747 15.1967 18.261 15.1967C17.3474 15.1967 17.2012 15.7449 17.055 15.6352C16.9089 15.5256 17.8225 14.8678 18.1148 14.8312C18.4072 14.7947 19.2477 15.087 19.5767 15.4159ZM18.5168 15.7449C18.7727 15.9641 18.5534 16.4392 18.2976 16.4392C18.0418 16.4392 17.5667 16.0007 17.7859 15.7083" fill="black"/>
<path d="M17.3103 16.0741C17.3468 15.6356 17.7123 15.5625 18.297 15.5625C18.8817 15.5625 19.1376 16.001 19.3568 16.1107C19.101 16.1107 18.8817 15.7452 18.297 15.7452C17.7123 15.7452 17.7123 15.7452 17.3103 16.1107M17.4199 16.1838C17.5661 15.9645 17.7488 16.403 18.1508 16.403C18.5528 16.403 18.7721 16.2934 19.0279 16.1107C19.2837 15.928 18.6625 16.5492 18.2605 16.5492C17.8585 16.5492 17.3103 16.33 17.4199 16.1838Z" fill="black"/>
<path d="M18.6619 16.4029C19.137 16.147 18.8446 15.7816 18.6619 15.7085C18.735 15.7816 19.0273 16.147 18.6619 16.4029ZM16.6153 18.5956C16.8346 18.5956 16.9077 18.5225 17.2001 18.5225C17.4924 18.5225 18.1868 18.9245 18.5888 18.7783C17.7482 19.1072 18.0772 18.8879 16.6153 18.8879H16.4326M18.735 19.1072C18.5888 18.8514 18.6253 18.9245 18.333 18.5225C18.6253 18.7418 18.6984 18.8514 18.735 19.1072ZM16.6153 19.4727C17.529 19.4727 17.3828 19.2899 18.5888 18.7783C17.7117 18.8879 17.529 19.1803 16.6153 19.1803H16.4326M16.6153 18.1205C16.8712 18.1205 16.9443 17.9378 17.2366 17.9378C17.529 17.9378 17.931 18.0474 18.1137 18.1936C18.1502 18.2301 18.0041 17.9012 17.7117 17.8647C17.4193 17.8281 17.529 17.353 17.2001 17.2799C17.2001 17.4261 17.3097 17.3896 17.3462 17.6088C17.3462 17.7916 17.0173 17.7916 16.9443 17.6088C17.0173 17.9012 16.7981 17.9012 16.6153 17.9012" fill="black"/>
<path d="M13.656 15.4159C13.9118 15.7083 14.058 15.1967 14.9716 15.1967C15.8853 15.1967 16.0315 15.7449 16.1776 15.6352C16.3238 15.5256 15.4102 14.8678 15.1178 14.8312C14.8255 14.7947 13.9849 15.087 13.656 15.4159ZM14.7158 15.7449C14.46 15.9641 14.6793 16.4392 14.9351 16.4392C15.1909 16.4392 15.666 16.0007 15.4467 15.7083" fill="black"/>
<path d="M15.9214 16.0741C15.8848 15.6356 15.5194 15.5625 14.9347 15.5625C14.3499 15.5625 14.0941 16.001 13.8749 16.1107C14.1307 16.1107 14.3499 15.7452 14.9347 15.7452C15.5194 15.7452 15.5194 15.7452 15.9214 16.1107M15.8118 16.1838C15.6656 15.9645 15.4828 16.403 15.0808 16.403C14.6788 16.403 14.4596 16.2934 14.2038 16.1107C13.9479 15.928 14.5692 16.5492 14.9712 16.5492C15.3732 16.5492 15.9214 16.33 15.8118 16.1838Z" fill="black"/>
<path d="M14.5697 16.4029C14.0946 16.147 14.387 15.7816 14.5697 15.7085C14.4966 15.7816 14.2042 16.147 14.5697 16.4029ZM16.6162 18.5956C16.397 18.5956 16.3239 18.5225 16.0315 18.5225C15.7391 18.5225 15.0448 18.9245 14.6428 18.7783C15.4833 19.1072 15.1544 18.8879 16.6162 18.8879H16.799M14.4966 19.1072C14.6428 18.8514 14.6062 18.9245 14.8986 18.5225C14.6062 18.7418 14.5331 18.8514 14.4966 19.1072ZM16.6162 19.4727C15.7026 19.4727 15.8488 19.2899 14.6428 18.7783C15.5199 18.8879 15.7026 19.1803 16.6162 19.1803H16.799M16.6162 18.1205C16.3604 18.1205 16.2873 17.9378 15.995 17.9378C15.7026 17.9378 15.3006 18.0474 15.1179 18.1936C15.0813 18.2301 15.2275 17.9012 15.5199 17.8647C15.8122 17.8281 15.7026 17.353 16.0315 17.2799C16.0315 17.4261 15.9219 17.3896 15.8853 17.6088C15.8853 17.7916 16.2142 17.7916 16.2873 17.6088C16.2142 17.9012 16.4335 17.9012 16.6162 17.9012" fill="black"/>
<path d="M16.6153 19.8008C16.4326 19.8008 15.9575 19.9104 16.6153 19.9104C17.2731 19.9104 16.798 19.8008 16.6153 19.8008Z" fill="black"/>
</g>
<defs>
<clipPath id="clip0_102_4304">
<rect width="79.736" height="59.802" fill="white" transform="translate(0.00836182 0.416016)"/>
</clipPath>
</defs>
</svg>
