<svg width="80" height="60" viewBox="0 0 80 60" fill="none" xmlns="http://www.w3.org/2000/svg">
<g clip-path="url(#clip0_102_4312)">
<path d="M31.9027 0.190918H79.7443V59.9929H31.9027V0.190918Z" fill="#FF0000"/>
<path d="M0.00836182 0.190918H31.9027V59.9929H0.00836182V0.190918Z" fill="#006600"/>
<path fill-rule="evenodd" clip-rule="evenodd" d="M42.3063 38.34C38.2821 38.2154 19.8806 26.7285 19.756 24.8846L20.7651 23.2026C22.5966 25.8563 41.4093 37.0318 43.2656 36.6332L42.3063 38.34Z" fill="#FFFF00" stroke="black" stroke-width="0.138967" stroke-linecap="round" stroke-linejoin="round"/>
<path fill-rule="evenodd" clip-rule="evenodd" d="M20.5535 22.9658C20.1922 23.9375 25.3626 27.127 31.567 30.9144C37.7839 34.6894 43.1412 37.0192 43.5274 36.6953L43.7143 36.3465C43.6395 36.471 43.4651 36.5084 43.1786 36.4212C41.4966 35.9353 37.1236 33.9295 31.7041 30.6403C26.272 27.3512 21.5626 24.3238 20.8276 23.0405C20.7703 22.9202 20.7445 22.7873 20.7528 22.6543H20.7279L20.5784 22.9284L20.5535 22.9658ZM42.3937 38.3897C42.3314 38.5143 42.1943 38.5143 41.9576 38.4894C40.4626 38.3274 35.9027 36.1097 30.508 32.8829C24.2288 29.1204 19.046 25.7067 19.6191 24.8097L19.7686 24.5356L19.7935 24.548C19.2951 26.068 30.0221 32.1977 30.6575 32.5964C36.862 36.4337 42.0947 38.6887 42.5556 38.1031L42.3937 38.3897Z" fill="#FFFF00" stroke="black" stroke-width="0.138967" stroke-linecap="round" stroke-linejoin="round"/>
<path fill-rule="evenodd" clip-rule="evenodd" d="M31.9282 26.0057C35.9399 25.9683 40.8985 25.4575 43.764 24.3113L43.141 23.3146C41.4591 24.249 36.4756 24.8719 31.8908 24.9591C26.4837 24.9093 22.6589 24.3985 20.7402 23.1152L20.1671 24.1867C23.6805 25.6817 27.2935 25.9932 31.9282 26.0057Z" fill="#FFFF00"/>
<path d="M31.9282 26.0057C35.9399 25.9683 40.8985 25.4575 43.764 24.3113L43.141 23.3146C41.4591 24.249 36.4756 24.8719 31.8908 24.9591C26.4837 24.9093 22.6589 24.3985 20.7402 23.1152L20.1671 24.1867C23.6805 25.6817 27.2935 25.9932 31.9282 26.0057" stroke="black" stroke-width="0.138967" stroke-linecap="round" stroke-linejoin="round"/>
<path fill-rule="evenodd" clip-rule="evenodd" d="M43.9262 24.336C43.8265 24.498 41.9577 25.1334 39.2168 25.6068C36.8006 25.973 34.3597 26.1521 31.916 26.1425C29.5746 26.1513 27.2353 26.0015 24.9142 25.694C22.0362 25.2455 20.5536 24.6226 19.993 24.3983L20.13 24.1242C21.7123 24.7472 23.2073 25.1209 24.9515 25.395C27.2557 25.7061 29.5784 25.8601 31.9035 25.856C34.3346 25.8585 36.7625 25.6795 39.167 25.3203C41.9702 24.8593 43.5026 24.2737 43.7269 24.0121L43.9262 24.3485V24.336ZM43.378 23.3269C43.079 23.576 41.559 24.1118 38.8929 24.5354C36.5905 24.8684 34.2672 25.035 31.9409 25.0337C29.2 25.0337 26.9449 24.8344 25.2381 24.5852C22.5221 24.2363 21.0769 23.5885 20.5536 23.4141L20.7156 23.14C21.1267 23.3518 22.5096 23.9124 25.263 24.2986C27.4764 24.5951 29.7078 24.7367 31.9409 24.7222C34.2506 24.7229 36.5574 24.5564 38.843 24.2239C41.5217 23.8501 42.9669 23.1774 43.1911 23.0029L43.378 23.3269ZM18.7346 30.8395C21.2015 32.1726 26.6958 32.8329 31.8911 32.8827C36.6254 32.8952 42.78 32.1601 45.0849 30.9391L45.0226 29.6061C44.3 30.7273 37.6968 31.8113 31.8412 31.7739C25.9856 31.724 20.5411 30.827 18.7222 29.6559V30.8395" fill="#FFFF00"/>
<path d="M18.7346 30.8395C21.2015 32.1726 26.6958 32.8329 31.8911 32.8827C36.6254 32.8952 42.78 32.1601 45.0849 30.9391L45.0226 29.6061C44.3 30.7273 37.6968 31.8113 31.8412 31.7739C25.9856 31.724 20.5411 30.827 18.7222 29.6559V30.8395M43.9262 24.336C43.8265 24.498 41.9577 25.1334 39.2168 25.6068C36.8006 25.973 34.3597 26.1521 31.916 26.1425C29.5746 26.1513 27.2353 26.0015 24.9142 25.694C22.0362 25.2455 20.5536 24.6226 19.993 24.3983L20.13 24.1242C21.7123 24.7472 23.2073 25.1209 24.9515 25.395C27.2557 25.7061 29.5784 25.8601 31.9035 25.856C34.3346 25.8585 36.7625 25.6795 39.167 25.3203C41.9702 24.8593 43.5026 24.2737 43.7269 24.0121L43.9262 24.3485V24.336ZM43.378 23.3269C43.079 23.576 41.559 24.1118 38.8929 24.5354C36.5905 24.8684 34.2672 25.035 31.9409 25.0337C29.2 25.0337 26.9449 24.8344 25.2381 24.5852C22.5221 24.2363 21.0769 23.5885 20.5536 23.4141L20.7156 23.14C21.1267 23.3518 22.5096 23.9124 25.263 24.2986C27.4764 24.5951 29.7078 24.7367 31.9409 24.7222C34.2506 24.7229 36.5574 24.5564 38.843 24.2239C41.5217 23.8501 42.9669 23.1774 43.1911 23.0029L43.378 23.3269V23.3269Z" stroke="black" stroke-width="0.138967" stroke-linecap="round" stroke-linejoin="round"/>
<path fill-rule="evenodd" clip-rule="evenodd" d="M45.2094 30.6531V30.9645C44.8606 31.3881 42.6928 32.0111 39.9767 32.4596C37.2784 32.8474 34.5547 33.0307 31.8287 33.0078C29.2439 33.0298 26.6613 32.8507 24.1043 32.472C22.1963 32.2515 20.3319 31.7476 18.5726 30.977V30.6157C19.7811 31.413 23.0453 32.0111 24.1417 32.1855C26.1102 32.4845 28.6393 32.7087 31.8287 32.7087C35.1801 32.7087 37.8588 32.472 39.9269 32.1606C41.8829 31.874 44.6612 31.1389 45.2094 30.6531ZM45.2094 29.5318V29.8432C44.8606 30.2544 42.6928 30.8773 39.9767 31.3258C37.2788 31.7179 34.555 31.9053 31.8287 31.8865C29.2441 31.9017 26.6621 31.7226 24.1043 31.3507C22.1963 31.1303 20.3319 30.6264 18.5726 29.8557V29.4819C19.7811 30.2918 23.0578 30.8773 24.1417 31.0517C26.6868 31.4245 29.2565 31.6036 31.8287 31.5875C35.1801 31.5875 37.8712 31.3383 39.9269 31.0268C41.8829 30.7527 44.6612 30.0177 45.2094 29.5318ZM31.8786 38.1034C26.1974 38.0785 21.326 36.5585 20.2919 36.3093L21.0395 37.4804C24.534 38.7181 28.2216 39.3215 31.9284 39.262C36.2516 39.1375 40.0266 38.8011 42.6803 37.5054L43.4527 36.2844C41.6462 37.1441 35.4791 38.1034 31.8661 38.1034" fill="#FFFF00"/>
<path d="M31.8786 38.1034C26.1974 38.0785 21.326 36.5585 20.2919 36.3093L21.0395 37.4804C24.534 38.7181 28.2216 39.3215 31.9284 39.262C36.2516 39.1375 40.0266 38.8011 42.6803 37.5054L43.4527 36.2844C41.6462 37.1441 35.4791 38.1034 31.8661 38.1034M45.2094 30.6531V30.9645C44.8606 31.3881 42.6928 32.0111 39.9767 32.4596C37.2784 32.8474 34.5547 33.0307 31.8287 33.0078C29.2439 33.0298 26.6613 32.8507 24.1043 32.472C22.1963 32.2515 20.3319 31.7476 18.5726 30.977V30.6157C19.7811 31.413 23.0453 32.0111 24.1417 32.1855C26.1102 32.4845 28.6393 32.7087 31.8287 32.7087C35.1801 32.7087 37.8588 32.472 39.9269 32.1606C41.8829 31.874 44.6612 31.1389 45.2094 30.6531V30.6531ZM45.2094 29.5318V29.8432C44.8606 30.2544 42.6928 30.8773 39.9767 31.3258C37.2788 31.7179 34.555 31.9053 31.8287 31.8865C29.2441 31.9017 26.6621 31.7226 24.1043 31.3507C22.1963 31.1303 20.3319 30.6264 18.5726 29.8557V29.4819C19.7811 30.2918 23.0578 30.8773 24.1417 31.0517C26.6868 31.4245 29.2565 31.6036 31.8287 31.5875C35.1801 31.5875 37.8712 31.3383 39.9269 31.0268C41.8829 30.7527 44.6612 30.0177 45.2094 29.5318V29.5318Z" stroke="black" stroke-width="0.138967" stroke-linecap="round" stroke-linejoin="round"/>
<path fill-rule="evenodd" clip-rule="evenodd" d="M42.9793 37.2309C42.8658 37.399 42.7495 37.5651 42.6304 37.7292C41.3845 38.1778 39.3911 38.6512 38.5689 38.7758C36.3624 39.1869 34.123 39.3954 31.8785 39.3987C26.8452 39.324 22.7213 38.3397 20.7902 37.4925L20.6283 37.2309L20.6532 37.1811L20.9148 37.2932C24.4606 38.4666 28.1686 39.0761 31.9034 39.0997C34.2457 39.0997 36.5755 38.8381 38.4567 38.5017C41.3472 37.9161 42.5183 37.4801 42.8796 37.2807L42.9668 37.2309H42.9793ZM43.6396 36.1345C43.5575 36.2805 43.4745 36.4258 43.3904 36.5706C42.7176 36.8198 40.8986 37.343 38.2449 37.7168C36.5007 37.9535 35.4168 38.1902 31.9408 38.2525C27.9672 38.2126 24.0181 37.6257 20.2047 36.5083L20.0676 36.1968C23.9421 37.2676 27.9345 37.8535 31.9533 37.941C35.1302 37.8788 36.4883 37.642 38.22 37.4053C41.3098 36.9319 42.8671 36.4086 43.3281 36.2716C43.3284 36.2633 43.3284 36.255 43.3281 36.2467L43.652 36.1221L43.6396 36.1345Z" fill="#FFFF00" stroke="black" stroke-width="0.138967" stroke-linecap="round" stroke-linejoin="round"/>
<path fill-rule="evenodd" clip-rule="evenodd" d="M43.7144 29.7929C43.7269 33.5305 41.8082 36.8944 40.2758 38.3645C38.0125 40.572 34.9899 41.8291 31.8288 41.8779C28.0538 41.9402 24.503 39.4858 23.5437 38.4019C21.3976 36.126 20.1762 33.1323 20.1176 30.0047C20.3418 25.9183 21.949 23.0777 24.2663 21.1216C26.5174 19.2685 29.3492 18.2672 32.2648 18.2935C33.9669 18.376 35.6329 18.8132 37.1561 19.5769C38.6794 20.3407 40.0263 21.4143 41.1105 22.7288C42.6679 24.6225 43.3531 26.6782 43.7144 29.7929ZM31.8537 17.0103C35.339 17.0102 38.6831 18.3878 41.1569 20.843C43.6307 23.2981 45.0337 26.6316 45.06 30.1168C45.06 31.8462 44.7193 33.5586 44.0575 35.1564C43.3957 36.7541 42.4257 38.2058 41.2029 39.4287C39.98 40.6515 38.5283 41.6215 36.9306 42.2833C35.3329 42.9451 33.6204 43.2857 31.8911 43.2857C30.1617 43.2857 28.4493 42.9451 26.8516 42.2833C25.2538 41.6215 23.8021 40.6515 22.5793 39.4287C21.3564 38.2058 20.3864 36.7541 19.7246 35.1564C19.0628 33.5586 18.7222 31.8462 18.7222 30.1168C18.7097 22.8908 24.6152 17.0103 31.8537 17.0103Z" fill="#FFFF00"/>
<path d="M31.8537 17.0103C35.339 17.0102 38.6831 18.3878 41.1569 20.843C43.6307 23.2981 45.0337 26.6316 45.06 30.1168C45.06 31.8462 44.7193 33.5586 44.0575 35.1564C43.3957 36.7541 42.4257 38.2058 41.2029 39.4287C39.98 40.6515 38.5283 41.6215 36.9306 42.2833C35.3329 42.9451 33.6204 43.2857 31.8911 43.2857C30.1617 43.2857 28.4493 42.9451 26.8516 42.2833C25.2538 41.6215 23.8021 40.6515 22.5793 39.4287C21.3564 38.2058 20.3864 36.7541 19.7246 35.1564C19.0628 33.5586 18.7222 31.8462 18.7222 30.1168C18.7097 22.8908 24.6152 17.0103 31.8537 17.0103M43.7144 29.7929C43.7269 33.5305 41.8082 36.8944 40.2758 38.3645C38.0125 40.572 34.9899 41.8291 31.8288 41.8779C28.0538 41.9402 24.503 39.4858 23.5437 38.4019C21.3976 36.126 20.1762 33.1323 20.1176 30.0047C20.3418 25.9183 21.949 23.0777 24.2663 21.1216C26.5174 19.2685 29.3492 18.2672 32.2648 18.2935C33.9669 18.376 35.6329 18.8132 37.1561 19.5769C38.6794 20.3407 40.0263 21.4143 41.1105 22.7288C42.6679 24.6225 43.3531 26.6782 43.7144 29.7929V29.7929Z" stroke="black" stroke-width="0.138967" stroke-linecap="round" stroke-linejoin="round"/>
<path fill-rule="evenodd" clip-rule="evenodd" d="M31.8904 16.9487C39.1414 16.9487 45.0469 22.8542 45.0469 30.1052C45.0469 37.3561 39.1414 43.2616 31.9029 43.2616C24.6644 43.2616 18.7465 37.3561 18.7465 30.1052C18.7465 22.8542 24.6519 16.9487 31.9029 16.9487H31.8904ZM19.0206 30.0927C19.0206 37.1693 24.8388 42.9626 31.8904 42.9626C38.9421 42.9626 44.7603 37.1693 44.7603 30.0927C44.7603 23.0161 38.9421 17.2228 31.8904 17.2228C24.8388 17.2228 19.0206 23.0161 19.0206 30.0927Z" fill="#FFFF00" stroke="black" stroke-width="0.138967" stroke-linecap="round" stroke-linejoin="round"/>
<path fill-rule="evenodd" clip-rule="evenodd" d="M31.9036 18.0439C35.0958 18.0538 38.1544 19.3263 40.4116 21.5835C42.6688 23.8407 43.9413 26.8994 43.9512 30.0915C43.9413 33.2849 42.6693 36.3448 40.4124 38.604C38.1555 40.8632 35.0969 42.1385 31.9036 42.1516C25.3004 42.1516 19.856 36.7196 19.856 30.0915C19.8691 26.9004 21.1426 23.8436 23.3991 21.5871C25.6556 19.3306 28.7124 18.0571 31.9036 18.0439ZM20.1425 30.0915C20.1425 36.5701 25.4499 41.8526 31.9036 41.8526C38.3572 41.8526 43.6646 36.5576 43.6646 30.0915C43.6646 23.613 38.3572 18.3305 31.9036 18.3305C28.7884 18.3436 25.8045 19.5869 23.6017 21.7897C21.3989 23.9925 20.1556 26.9764 20.1425 30.0915Z" fill="#FFFF00" stroke="black" stroke-width="0.138967" stroke-linecap="round" stroke-linejoin="round"/>
<path fill-rule="evenodd" clip-rule="evenodd" d="M32.4394 16.8857H31.3057V43.3356H32.427L32.4394 16.8857Z" fill="#FFFF00" stroke="black" stroke-width="0.138967" stroke-linecap="round" stroke-linejoin="round"/>
<path fill-rule="evenodd" clip-rule="evenodd" d="M32.3143 16.7368H32.6008V43.4857H32.3267V16.7368H32.3143ZM31.193 16.7368H31.492V43.4857H31.2055V16.7368H31.193Z" fill="#FFFF00" stroke="black" stroke-width="0.138967" stroke-linecap="round" stroke-linejoin="round"/>
<path fill-rule="evenodd" clip-rule="evenodd" d="M45.0598 30.6157V29.6439L44.2625 28.8964L39.74 27.7004L33.2365 27.04L25.3875 27.4387L19.806 28.7593L18.6847 29.5941V30.5783L21.5377 29.2951L28.3153 28.2361H34.8312L39.6154 28.7593L42.9294 29.5567L45.0598 30.6157Z" fill="#FFFF00" stroke="black" stroke-width="0.138967" stroke-linecap="round" stroke-linejoin="round"/>
<path fill-rule="evenodd" clip-rule="evenodd" d="M31.9035 28.0739C35.0057 28.0739 38.0083 28.3605 40.4128 28.8214C42.8796 29.3198 44.6114 29.9427 45.2094 30.628V30.9768C44.4868 30.1047 42.157 29.4818 40.3505 29.108C37.9834 28.6595 34.9933 28.3605 31.891 28.3605C28.6393 28.3605 25.5994 28.6844 23.2571 29.1329C21.3883 29.5067 18.8841 30.2542 18.5726 30.9768V30.6155C18.7346 30.1171 20.6034 29.3696 23.2197 28.8339C25.5744 28.3729 28.6144 28.0739 31.891 28.0739H31.9035ZM31.9035 26.9402C34.7566 26.9344 37.6044 27.1846 40.4128 27.6877C42.8796 28.186 44.6114 28.809 45.2094 29.5067V29.8431C44.4868 28.9834 42.157 28.348 40.3505 27.9867C37.9834 27.5257 34.9933 27.2392 31.891 27.2392C28.9995 27.23 26.1134 27.4886 23.2696 28.0116C21.4631 28.348 18.8592 29.1204 18.5726 29.8431V29.4942C18.7471 28.9959 20.6408 28.211 23.2197 27.7126C25.5869 27.2516 28.6144 26.9402 31.9035 26.9402ZM31.8287 21.1842C36.725 21.1593 40.9984 21.8695 42.9544 22.8662L43.6645 24.112C41.9701 23.1901 37.3604 22.2432 31.8412 22.3678C27.3436 22.4052 22.5345 22.8662 20.13 24.1619L20.9772 22.7416C22.9581 21.7075 27.6177 21.1842 31.8287 21.1842Z" fill="#FFFF00"/>
<path d="M31.8287 21.1842C36.725 21.1593 40.9984 21.8695 42.9544 22.8662L43.6645 24.112C41.9701 23.1901 37.3604 22.2432 31.8412 22.3678C27.3436 22.4052 22.5345 22.8662 20.13 24.1619L20.9772 22.7416C22.9581 21.7075 27.6177 21.1842 31.8287 21.1842M31.9035 28.0739C35.0057 28.0739 38.0083 28.3605 40.4128 28.8214C42.8796 29.3198 44.6114 29.9427 45.2094 30.628V30.9768C44.4868 30.1047 42.157 29.4818 40.3505 29.108C37.9834 28.6595 34.9933 28.3605 31.891 28.3605C28.6393 28.3605 25.5994 28.6844 23.2571 29.1329C21.3883 29.5067 18.8841 30.2542 18.5726 30.9768V30.6155C18.7346 30.1171 20.6034 29.3696 23.2197 28.8339C25.5744 28.3729 28.6144 28.0739 31.891 28.0739H31.9035ZM31.9035 26.9402C34.7566 26.9344 37.6044 27.1846 40.4128 27.6877C42.8796 28.186 44.6114 28.809 45.2094 29.5067V29.8431C44.4868 28.9834 42.157 28.348 40.3505 27.9867C37.9834 27.5257 34.9933 27.2392 31.891 27.2392C28.9995 27.23 26.1134 27.4886 23.2696 28.0116C21.4631 28.348 18.8592 29.1204 18.5726 29.8431V29.4942C18.7471 28.9959 20.6408 28.211 23.2197 27.7126C25.5869 27.2516 28.6144 26.9402 31.9035 26.9402V26.9402Z" stroke="black" stroke-width="0.138967" stroke-linecap="round" stroke-linejoin="round"/>
<path fill-rule="evenodd" clip-rule="evenodd" d="M31.9031 22.2052C34.4595 22.1621 37.0149 22.3413 39.5403 22.741C41.5337 23.1147 43.4399 23.6629 43.714 23.9619L43.9258 24.3357C43.2655 23.9121 41.6084 23.4262 39.4905 23.0275C37.3725 22.6288 34.6689 22.4918 31.8906 22.5042C28.7386 22.4918 26.2842 22.6537 24.1911 23.0275C22.7483 23.2297 21.3474 23.663 20.0424 24.3108L20.2542 23.9245C21.0017 23.5508 22.1603 23.0898 24.1288 22.7285C26.3091 22.3298 28.7884 22.2177 31.9031 22.2052ZM31.9031 21.0839C34.5693 21.059 37.2105 21.2085 39.2662 21.5823C40.5981 21.78 41.887 22.2012 43.0786 22.8282L43.39 23.3265C42.8668 22.741 40.8983 22.1803 39.1416 21.8813C37.0984 21.52 34.5693 21.383 31.9031 21.358C29.4212 21.3359 26.9418 21.5193 24.4901 21.9062C23.2082 22.0848 21.9632 22.4676 20.8023 23.04L21.0764 22.6288C21.799 22.2551 22.9702 21.9062 24.4403 21.6197C26.9081 21.2276 29.4045 21.0443 31.9031 21.0715V21.0839ZM38.4315 35.5735C36.272 35.1996 34.0818 35.0327 31.8906 35.0751C23.7301 35.1748 21.1014 36.757 20.7774 37.2305L20.1545 36.2338C22.2476 34.7387 26.6829 33.8915 31.9405 33.9663C34.6689 34.0161 37.0236 34.203 38.9921 34.5892L38.4315 35.5859" fill="#FFFF00"/>
<path d="M38.4315 35.5735C36.272 35.1996 34.0818 35.0327 31.8906 35.0751C23.7301 35.1748 21.1014 36.757 20.7774 37.2305L20.1545 36.2338C22.2476 34.7387 26.6829 33.8915 31.9405 33.9663C34.6689 34.0161 37.0236 34.203 38.9921 34.5892L38.4315 35.5859M31.9031 22.2052C34.4595 22.1621 37.0149 22.3413 39.5403 22.741C41.5337 23.1147 43.4399 23.6629 43.714 23.9619L43.9258 24.3357C43.2655 23.9121 41.6084 23.4262 39.4905 23.0275C37.3725 22.6288 34.6689 22.4918 31.8906 22.5042C28.7386 22.4918 26.2842 22.6537 24.1911 23.0275C22.7483 23.2297 21.3474 23.663 20.0424 24.3108L20.2542 23.9245C21.0017 23.5508 22.1603 23.0898 24.1288 22.7285C26.3091 22.3298 28.7884 22.2177 31.9031 22.2052V22.2052ZM31.9031 21.0839C34.5693 21.059 37.2105 21.2085 39.2662 21.5823C40.5981 21.78 41.887 22.2012 43.0786 22.8282L43.39 23.3265C42.8668 22.741 40.8983 22.1803 39.1416 21.8813C37.0984 21.52 34.5693 21.383 31.9031 21.358C29.4212 21.3359 26.9418 21.5193 24.4901 21.9062C23.2082 22.0848 21.9632 22.4676 20.8023 23.04L21.0764 22.6288C21.799 22.2551 22.9702 21.9062 24.4403 21.6197C26.9081 21.2276 29.4045 21.0443 31.9031 21.0715V21.0839Z" stroke="black" stroke-width="0.138967" stroke-linecap="round" stroke-linejoin="round"/>
<path fill-rule="evenodd" clip-rule="evenodd" d="M31.8536 34.9392C34.1211 34.9766 36.3388 35.0638 38.4941 35.4625L38.3446 35.7366C36.3512 35.3628 34.2083 35.2382 31.8661 35.2382C28.8386 35.2133 25.7987 35.4998 23.1449 36.2598C22.3102 36.4965 20.9273 37.0323 20.7778 37.4808L20.6283 37.2316C20.6781 36.9575 21.5004 36.4093 23.0702 35.9857C26.1101 35.1136 28.9507 34.9517 31.8536 34.9392ZM31.9533 33.793C34.3466 33.7905 36.7354 33.999 39.0921 34.4159L38.9302 34.7025C36.6289 34.2803 34.2929 34.0759 31.9533 34.092C28.9383 34.092 25.7364 34.3163 22.821 35.1635C21.8866 35.4375 20.2545 36.0356 20.2047 36.4965L20.0552 36.2224C20.0801 35.7988 21.4879 35.2382 22.7587 34.8769C25.6865 34.0172 28.9009 33.8054 31.9533 33.793Z" fill="#FFFF00" stroke="black" stroke-width="0.138967" stroke-linecap="round" stroke-linejoin="round"/>
<path fill-rule="evenodd" clip-rule="evenodd" d="M43.5396 36.3838L42.5678 37.9163L39.7397 35.4121L32.4389 30.4908L24.1912 25.9683L19.9178 24.5106L20.8273 22.8163L21.1388 22.6543L23.7925 23.3146L32.5635 27.8371L37.6217 31.0266L41.8701 34.079L43.6019 36.0724L43.5396 36.3838Z" fill="#FFFF00" stroke="black" stroke-width="0.138967" stroke-linecap="round" stroke-linejoin="round"/>
<path fill-rule="evenodd" clip-rule="evenodd" d="M19.7685 24.5486C20.5161 24.0503 26.0228 26.4922 31.8037 29.9806C37.5472 33.4691 43.0539 37.4061 42.5556 38.1411L42.3936 38.4028L42.3189 38.4651C42.3313 38.4526 42.4185 38.3405 42.3189 38.0788C42.0697 37.269 38.1576 34.1543 31.6915 30.2423C25.375 26.4922 20.1174 24.2247 19.6066 24.8726L19.7685 24.5486ZM43.7391 36.372C44.2126 35.4251 39.1045 31.5754 32.763 27.8253C26.2845 24.15 21.6 21.9821 20.7403 22.63L20.5659 22.9913C20.5659 23.0037 20.5659 22.9664 20.6157 22.929C20.7652 22.8044 21.0269 22.8044 21.139 22.8044C22.6091 22.8293 26.8077 24.7604 32.7007 28.1368C35.2921 29.6318 43.6146 34.9891 43.5772 36.4841C43.5772 36.6087 43.5896 36.6336 43.5398 36.7084L43.7516 36.3844L43.7391 36.372Z" fill="#FFFF00" stroke="black" stroke-width="0.138967" stroke-linecap="round" stroke-linejoin="round"/>
<path d="M24.0087 31.558C24.0106 32.5896 24.2172 33.6106 24.6164 34.5618C25.0156 35.513 25.5995 36.3756 26.3343 37.0997C27.0602 37.8367 27.9247 38.4228 28.8781 38.8242C29.8314 39.2256 30.8548 39.4344 31.8893 39.4386C33.9828 39.4384 35.9905 38.6067 37.4708 37.1262C38.203 36.3982 38.7842 35.5327 39.181 34.5794C39.5779 33.6261 39.7825 32.6039 39.7831 31.5713V21.0461L24.0087 21.0195V31.558Z" fill="white" stroke="black" stroke-width="0.172937"/>
<path d="M24.301 31.5715C24.3038 32.561 24.5026 33.5402 24.8858 34.4526C25.2689 35.365 25.829 36.1924 26.5336 36.8872C27.9485 38.3095 29.8698 39.1124 31.876 39.1198C33.8786 39.1209 35.7999 38.3276 37.2183 36.9138C37.9205 36.2179 38.4781 35.39 38.859 34.4776C39.2399 33.5653 39.4365 32.5867 39.4376 31.598V21.3652H24.3276V31.5715M36.4209 24.4351V30.9336L36.4076 31.6113C36.4121 32.205 36.2967 32.7935 36.0684 33.3416C35.84 33.8896 35.5034 34.3859 35.0787 34.8008C34.2336 35.6488 33.0865 36.1268 31.8893 36.1297C30.6401 36.1297 29.537 35.5981 28.7131 34.7742C27.8651 33.9291 27.3871 32.782 27.3842 31.5848V24.4085L36.4209 24.4351Z" fill="#FF0000"/>
<path d="M24.301 31.5715C24.3038 32.561 24.5026 33.5402 24.8858 34.4526C25.2689 35.365 25.829 36.1924 26.5336 36.8872C27.9485 38.3095 29.8698 39.1124 31.876 39.1198C33.8786 39.1209 35.7999 38.3276 37.2183 36.9138C37.9205 36.2179 38.4781 35.39 38.859 34.4776C39.2399 33.5653 39.4365 32.5867 39.4376 31.598V21.3652H24.3276V31.5715M36.4209 24.4351V30.9336L36.4076 31.6113C36.4121 32.205 36.2967 32.7935 36.0684 33.3416C35.84 33.8896 35.5034 34.3859 35.0787 34.8008C34.2336 35.6488 33.0865 36.1268 31.8893 36.1297C30.6401 36.1297 29.537 35.5981 28.7131 34.7742C27.8651 33.9291 27.3871 32.782 27.3842 31.5848V24.4085L36.4209 24.4351Z" stroke="black" stroke-width="0.123526"/>
<path d="M25.2842 24.036C25.2975 23.3051 25.8158 23.1323 25.8158 23.1323C25.829 23.1323 26.3872 23.3184 26.3872 24.0493H25.2842" fill="#FFFF00"/>
<path d="M24.8327 23.1456L24.7397 23.9828H25.2979C25.2979 23.2918 25.8295 23.1855 25.8295 23.1855C25.8427 23.1855 26.361 23.3317 26.3743 23.9828H26.9325L26.8262 23.1323H24.8327V23.1456ZM24.6999 23.9961H26.959C26.9989 23.9961 27.0388 24.036 27.0388 24.0892C27.0388 24.1556 26.9989 24.1955 26.959 24.1955H24.6999C24.66 24.1955 24.6201 24.1556 24.6201 24.0892C24.6201 24.036 24.66 23.9961 24.7131 23.9961H24.6999Z" fill="#FFFF00" stroke="black" stroke-width="0.123526"/>
<path d="M25.5229 23.9831C25.5229 23.5446 25.8285 23.425 25.8285 23.425C25.8285 23.425 26.1342 23.5579 26.1342 23.9831H25.5229ZM24.7521 22.7871H26.9183C26.9581 22.7871 26.998 22.8402 26.998 22.8934C26.998 22.9333 26.9581 22.9731 26.9183 22.9731H24.7521C24.7122 22.9731 24.6724 22.9333 24.6724 22.8801C24.6724 22.8402 24.7122 22.8004 24.7521 22.8004V22.7871ZM24.8053 22.9864H26.8518C26.8917 22.9864 26.9316 23.0263 26.9316 23.0794C26.9316 23.1326 26.8917 23.1725 26.8518 23.1725H24.792C24.7388 23.1725 24.7122 23.1326 24.7122 23.0794C24.7122 23.0263 24.7388 22.9864 24.792 22.9864H24.8053ZM25.4697 21.5777H25.6292V21.6841H25.7488V21.5777H25.9216V21.6973H26.0412V21.5645H26.2006V21.8302C26.2006 21.8834 26.1741 21.91 26.1342 21.91H25.5495C25.5096 21.91 25.4697 21.8834 25.4697 21.8435V21.5777ZM26.081 21.9366L26.1209 22.7871H25.5495L25.5893 21.9233H26.081" fill="#FFFF00"/>
<path d="M26.081 21.9366L26.1209 22.7871H25.5495L25.5893 21.9233H26.081M25.5229 23.9831C25.5229 23.5446 25.8285 23.425 25.8285 23.425C25.8285 23.425 26.1342 23.5579 26.1342 23.9831H25.5229ZM24.7521 22.7871H26.9183C26.9581 22.7871 26.998 22.8402 26.998 22.8934C26.998 22.9333 26.9581 22.9731 26.9183 22.9731H24.7521C24.7122 22.9731 24.6724 22.9333 24.6724 22.8801C24.6724 22.8402 24.7122 22.8004 24.7521 22.8004V22.7871ZM24.8053 22.9864H26.8518C26.8917 22.9864 26.9316 23.0263 26.9316 23.0794C26.9316 23.1326 26.8917 23.1725 26.8518 23.1725H24.792C24.7388 23.1725 24.7122 23.1326 24.7122 23.0794C24.7122 23.0263 24.7388 22.9864 24.792 22.9864H24.8053ZM25.4697 21.5777H25.6292V21.6841H25.7488V21.5777H25.9216V21.6973H26.0412V21.5645H26.2006V21.8302C26.2006 21.8834 26.1741 21.91 26.1342 21.91H25.5495C25.5096 21.91 25.4697 21.8834 25.4697 21.8435V21.5777Z" stroke="black" stroke-width="0.123526"/>
<path d="M25.3908 22.3354V22.7873H24.8593V22.3354H25.3908Z" fill="#FFFF00" stroke="black" stroke-width="0.123526"/>
<path d="M26.7992 22.3354V22.7873H26.2676V22.3354H26.7992Z" fill="#FFFF00" stroke="black" stroke-width="0.123526"/>
<path d="M24.7659 21.9893H24.9253V22.1222H25.0449V21.9893H25.2044V22.1222H25.324V21.9893H25.4835V22.255C25.4835 22.3082 25.4569 22.3348 25.417 22.3348H24.8456C24.8245 22.3348 24.8042 22.3264 24.7892 22.3114C24.7743 22.2965 24.7659 22.2762 24.7659 22.255V21.9893Z" fill="#FFFF00" stroke="black" stroke-width="0.123526"/>
<path d="M26.1748 21.9893H26.3343V22.1222H26.4539V21.9893H26.6134V22.1222H26.733V21.9893H26.8924V22.255C26.8924 22.3082 26.8659 22.3348 26.826 22.3348H26.2545C26.2334 22.3348 26.2131 22.3264 26.1982 22.3114C26.1832 22.2965 26.1748 22.2762 26.1748 22.255V21.9893Z" fill="#FFFF00" stroke="black" stroke-width="0.123526"/>
<path d="M25.7756 22.2021C25.7756 22.1234 25.8938 22.1234 25.8938 22.2021V22.4121H25.7756V22.2021Z" fill="black"/>
<path d="M25.0717 22.4943C25.0717 22.4153 25.1769 22.4153 25.1769 22.4943V22.6521H25.0717V22.4943Z" fill="black"/>
<path d="M26.4801 22.4943C26.4801 22.4153 26.5853 22.4153 26.5853 22.4943V22.6521H26.4801V22.4943Z" fill="black"/>
<path d="M25.2842 30.1888C25.2975 29.4579 25.8158 29.2852 25.8158 29.2852C25.829 29.2852 26.3872 29.4712 26.3872 30.2021H25.2842" fill="#FFFF00"/>
<path d="M24.8327 29.2984L24.7397 30.1357H25.2979C25.2979 29.4446 25.8295 29.3383 25.8295 29.3383C25.8427 29.3383 26.361 29.4845 26.3743 30.1357H26.9325L26.8262 29.2852H24.8327V29.2984ZM24.6999 30.149H26.959C26.9989 30.149 27.0388 30.1888 27.0388 30.242C27.0388 30.3084 26.9989 30.3483 26.959 30.3483H24.6999C24.66 30.3483 24.6201 30.3084 24.6201 30.242C24.6201 30.1888 24.66 30.149 24.7131 30.149H24.6999Z" fill="#FFFF00" stroke="black" stroke-width="0.123526"/>
<path d="M25.5229 30.1355C25.5229 29.6969 25.8285 29.5773 25.8285 29.5773C25.8285 29.5773 26.1342 29.7102 26.1342 30.1355H25.5229ZM24.7521 28.9394H26.9183C26.9581 28.9394 26.998 28.9926 26.998 29.0457C26.998 29.0856 26.9581 29.1255 26.9183 29.1255H24.7521C24.7122 29.1255 24.6724 29.0856 24.6724 29.0324C24.6724 28.9926 24.7122 28.9527 24.7521 28.9527V28.9394ZM24.8053 29.1388H26.8518C26.8917 29.1388 26.9316 29.1786 26.9316 29.2318C26.9316 29.2849 26.8917 29.3248 26.8518 29.3248H24.792C24.7388 29.3248 24.7122 29.2849 24.7122 29.2318C24.7122 29.1786 24.7388 29.1388 24.792 29.1388H24.8053ZM25.4697 27.7301H25.6292V27.8364H25.7488V27.7301H25.9216V27.8497H26.0412V27.7168H26.2006V27.9826C26.2006 28.0357 26.1741 28.0623 26.1342 28.0623H25.5495C25.5096 28.0623 25.4697 28.0357 25.4697 27.9959V27.7301ZM26.081 28.0889L26.1209 28.9394H25.5495L25.5893 28.0756H26.081" fill="#FFFF00"/>
<path d="M26.081 28.0889L26.1209 28.9394H25.5495L25.5893 28.0756H26.081M25.5229 30.1355C25.5229 29.6969 25.8285 29.5773 25.8285 29.5773C25.8285 29.5773 26.1342 29.7102 26.1342 30.1355H25.5229ZM24.7521 28.9394H26.9183C26.9581 28.9394 26.998 28.9926 26.998 29.0457C26.998 29.0856 26.9581 29.1255 26.9183 29.1255H24.7521C24.7122 29.1255 24.6724 29.0856 24.6724 29.0324C24.6724 28.9926 24.7122 28.9527 24.7521 28.9527V28.9394ZM24.8053 29.1388H26.8518C26.8917 29.1388 26.9316 29.1786 26.9316 29.2318C26.9316 29.2849 26.8917 29.3248 26.8518 29.3248H24.792C24.7388 29.3248 24.7122 29.2849 24.7122 29.2318C24.7122 29.1786 24.7388 29.1388 24.792 29.1388H24.8053ZM25.4697 27.7301H25.6292V27.8364H25.7488V27.7301H25.9216V27.8497H26.0412V27.7168H26.2006V27.9826C26.2006 28.0357 26.1741 28.0623 26.1342 28.0623H25.5495C25.5096 28.0623 25.4697 28.0357 25.4697 27.9959V27.7301Z" stroke="black" stroke-width="0.123526"/>
<path d="M25.3908 28.4883V28.9401H24.8593V28.4883H25.3908Z" fill="#FFFF00" stroke="black" stroke-width="0.123526"/>
<path d="M26.7992 28.4883V28.9401H26.2676V28.4883H26.7992Z" fill="#FFFF00" stroke="black" stroke-width="0.123526"/>
<path d="M24.7659 28.1431H24.9253V28.276H25.0449V28.1431H25.2044V28.276H25.324V28.1431H25.4835V28.4089C25.4835 28.462 25.4569 28.4886 25.417 28.4886H24.8456C24.8245 28.4886 24.8042 28.4802 24.7892 28.4652C24.7743 28.4503 24.7659 28.43 24.7659 28.4089V28.1431Z" fill="#FFFF00" stroke="black" stroke-width="0.123526"/>
<path d="M26.1748 28.1431H26.3343V28.276H26.4539V28.1431H26.6134V28.276H26.733V28.1431H26.8924V28.4089C26.8924 28.462 26.8659 28.4886 26.826 28.4886H26.2545C26.2334 28.4886 26.2131 28.4802 26.1982 28.4652C26.1832 28.4503 26.1748 28.43 26.1748 28.4089V28.1431Z" fill="#FFFF00" stroke="black" stroke-width="0.123526"/>
<path d="M25.7756 28.3545C25.7756 28.2757 25.8938 28.2757 25.8938 28.3545V28.5645H25.7756V28.3545Z" fill="black"/>
<path d="M25.0717 28.6466C25.0717 28.5677 25.1769 28.5677 25.1769 28.6466V28.8045H25.0717V28.6466Z" fill="black"/>
<path d="M26.4801 28.6466C26.4801 28.5677 26.5853 28.5677 26.5853 28.6466V28.8045H26.4801V28.6466Z" fill="black"/>
<path d="M27.6827 36.6026C27.1735 36.0781 27.4161 35.5886 27.4161 35.5886C27.4254 35.5792 27.9507 35.3142 28.4694 35.8293L27.6922 36.6119" fill="#FFFF00"/>
<path d="M26.7326 36.296L27.2611 36.9519L27.6544 36.5559C27.1641 36.069 27.4632 35.6168 27.4632 35.6168C27.4726 35.6074 27.9415 35.3427 28.4129 35.7921L28.8062 35.396L28.1278 34.8722L26.7232 36.2866L26.7326 36.296ZM27.2425 36.9896L28.8344 35.3865C28.8625 35.3582 28.9189 35.358 28.9566 35.3955C29.0037 35.4423 29.0039 35.4987 28.9758 35.527L27.3839 37.1301C27.3558 37.1583 27.2995 37.1585 27.2523 37.1117C27.2146 37.0743 27.2144 37.0179 27.2518 36.9802L27.2425 36.9896Z" fill="#FFFF00" stroke="black" stroke-width="0.123526"/>
<path d="M27.8133 36.3962C27.5021 36.0872 27.6326 35.786 27.6326 35.786C27.6326 35.786 27.9423 35.6628 28.2441 35.9624L27.8133 36.3962ZM26.4215 36.1003L27.9479 34.5633C27.976 34.535 28.0418 34.5442 28.0795 34.5816C28.1078 34.6097 28.108 34.6661 28.0799 34.6944L26.5535 36.2314C26.5254 36.2597 26.4691 36.2599 26.4313 36.2225C26.4031 36.1944 26.4029 36.138 26.431 36.1097L26.4215 36.1003ZM26.6004 36.2031L28.0425 34.7509C28.0706 34.7226 28.127 34.7224 28.1647 34.7599C28.2024 34.7973 28.2026 34.8537 28.1745 34.882L26.7231 36.3436C26.6856 36.3813 26.6386 36.3721 26.6009 36.3346C26.5632 36.2972 26.5536 36.2502 26.5911 36.2125L26.6004 36.2031ZM26.0691 34.739L26.1814 34.6258L26.2569 34.7007L26.3412 34.6159L26.2657 34.541L26.3875 34.4184L26.4723 34.5027L26.5566 34.4178L26.4623 34.3241L26.5747 34.211L26.7633 34.3983C26.801 34.4357 26.8011 34.4733 26.773 34.5016L26.361 34.9165C26.3329 34.9448 26.286 34.9544 26.2577 34.9263L26.0691 34.739ZM26.7544 34.5581L27.386 35.1291L26.9834 35.5345L26.3985 34.8976L26.745 34.5487" fill="#FFFF00"/>
<path d="M26.7544 34.5581L27.386 35.1291L26.9834 35.5345L26.3985 34.8976L26.745 34.5487M27.8133 36.3962C27.5021 36.0872 27.6326 35.786 27.6326 35.786C27.6326 35.786 27.9423 35.6628 28.2441 35.9624L27.8133 36.3962ZM26.4215 36.1003L27.9479 34.5633C27.976 34.535 28.0418 34.5442 28.0795 34.5816C28.1078 34.6097 28.108 34.6661 28.0799 34.6944L26.5535 36.2314C26.5254 36.2597 26.4691 36.2599 26.4313 36.2225C26.4031 36.1944 26.4029 36.138 26.431 36.1097L26.4215 36.1003ZM26.6004 36.2031L28.0425 34.7509C28.0706 34.7226 28.127 34.7224 28.1647 34.7599C28.2024 34.7973 28.2026 34.8537 28.1745 34.882L26.7231 36.3436C26.6856 36.3813 26.6386 36.3721 26.6009 36.3346C26.5632 36.2972 26.5536 36.2502 26.5911 36.2125L26.6004 36.2031ZM26.0691 34.739L26.1814 34.6258L26.2569 34.7007L26.3412 34.6159L26.2657 34.541L26.3875 34.4184L26.4723 34.5027L26.5566 34.4178L26.4623 34.3241L26.5747 34.211L26.7633 34.3983C26.801 34.4357 26.8011 34.4733 26.773 34.5016L26.361 34.9165C26.3329 34.9448 26.286 34.9544 26.2577 34.9263L26.0691 34.739Z" stroke="black" stroke-width="0.123526"/>
<path d="M26.5506 35.3289L26.8712 35.6472L26.4966 36.0244L26.176 35.7061L26.5506 35.3289Z" fill="#FFFF00" stroke="black" stroke-width="0.123526"/>
<path d="M27.5434 34.3289L27.864 34.6472L27.4894 35.0244L27.1688 34.7061L27.5434 34.3289Z" fill="#FFFF00" stroke="black" stroke-width="0.123526"/>
<path d="M25.8656 35.5288L25.978 35.4157L26.0723 35.5093L26.1565 35.4244L26.0622 35.3308L26.1746 35.2176L26.2689 35.3113L26.3532 35.2264L26.2589 35.1328L26.3713 35.0196L26.5599 35.2069C26.5976 35.2443 26.5977 35.2819 26.5696 35.3102L26.167 35.7157C26.1521 35.7307 26.1318 35.7392 26.1107 35.7392C26.0895 35.7393 26.0692 35.731 26.0542 35.7161L25.8656 35.5288Z" fill="#FFFF00" stroke="black" stroke-width="0.123526"/>
<path d="M26.8582 34.5283L26.9705 34.4152L27.0648 34.5088L27.1491 34.4239L27.0548 34.3303L27.1672 34.2171L27.2615 34.3108L27.3457 34.2259L27.2514 34.1323L27.3638 34.0191L27.5524 34.2064C27.5901 34.2439 27.5903 34.2814 27.5622 34.3097L27.1595 34.7152C27.1446 34.7302 27.1244 34.7387 27.1032 34.7388C27.0821 34.7388 27.0618 34.7305 27.0467 34.7156L26.8582 34.5283Z" fill="#FFFF00" stroke="black" stroke-width="0.123526"/>
<path d="M26.7272 34.9606C26.6713 34.9051 26.7546 34.8213 26.8104 34.8767L26.9594 35.0247L26.8762 35.1085L26.7272 34.9606Z" fill="black"/>
<path d="M26.4384 35.6667C26.3824 35.6111 26.4565 35.5364 26.5125 35.592L26.6245 35.7033L26.5504 35.7779L26.4384 35.6667Z" fill="black"/>
<path d="M27.431 34.6677C27.375 34.6121 27.4492 34.5374 27.5052 34.593L27.6172 34.7042L27.543 34.7789L27.431 34.6677Z" fill="black"/>
<path d="M31.3575 24.036C31.3708 23.3051 31.8891 23.1323 31.8891 23.1323C31.9024 23.1323 32.4606 23.3184 32.4606 24.0493H31.3575" fill="#FFFF00"/>
<path d="M30.9061 23.1456L30.8131 23.9828H31.3712C31.3712 23.2918 31.9028 23.1855 31.9028 23.1855C31.9161 23.1855 32.4344 23.3317 32.4477 23.9828H33.0058L32.8995 23.1323H30.9061V23.1456ZM30.7732 23.9961H33.0324C33.0723 23.9961 33.1121 24.036 33.1121 24.0892C33.1121 24.1556 33.0723 24.1955 33.0324 24.1955H30.7732C30.7334 24.1955 30.6935 24.1556 30.6935 24.0892C30.6935 24.036 30.7333 23.9961 30.7865 23.9961H30.7732Z" fill="#FFFF00" stroke="black" stroke-width="0.123526"/>
<path d="M31.5961 23.9831C31.5961 23.5446 31.9018 23.425 31.9018 23.425C31.9018 23.425 32.2074 23.5579 32.2074 23.9831H31.5961ZM30.8253 22.7871H32.9915C33.0314 22.7871 33.0712 22.8402 33.0712 22.8934C33.0712 22.9333 33.0314 22.9731 32.9915 22.9731H30.8253C30.7855 22.9731 30.7456 22.9333 30.7456 22.8801C30.7456 22.8402 30.7855 22.8004 30.8253 22.8004V22.7871ZM30.8785 22.9864H32.9251C32.9649 22.9864 33.0048 23.0263 33.0048 23.0794C33.0048 23.1326 32.9649 23.1725 32.9251 23.1725H30.8652C30.8121 23.1725 30.7855 23.1326 30.7855 23.0794C30.7855 23.0263 30.8121 22.9864 30.8652 22.9864H30.8785ZM31.543 21.5777H31.7024V21.6841H31.822V21.5777H31.9948V21.6973H32.1144V21.5645H32.2739V21.8302C32.2739 21.8834 32.2473 21.91 32.2074 21.91H31.6227C31.5828 21.91 31.543 21.8834 31.543 21.8435V21.5777ZM32.1543 21.9366L32.1941 22.7871H31.6227L31.6626 21.9233H32.1543" fill="#FFFF00"/>
<path d="M32.1543 21.9366L32.1941 22.7871H31.6227L31.6626 21.9233H32.1543M31.5961 23.9831C31.5961 23.5446 31.9018 23.425 31.9018 23.425C31.9018 23.425 32.2074 23.5579 32.2074 23.9831H31.5961ZM30.8253 22.7871H32.9915C33.0314 22.7871 33.0712 22.8402 33.0712 22.8934C33.0712 22.9333 33.0314 22.9731 32.9915 22.9731H30.8253C30.7855 22.9731 30.7456 22.9333 30.7456 22.8801C30.7456 22.8402 30.7855 22.8004 30.8253 22.8004V22.7871ZM30.8785 22.9864H32.9251C32.9649 22.9864 33.0048 23.0263 33.0048 23.0794C33.0048 23.1326 32.9649 23.1725 32.9251 23.1725H30.8652C30.8121 23.1725 30.7855 23.1326 30.7855 23.0794C30.7855 23.0263 30.8121 22.9864 30.8652 22.9864H30.8785ZM31.543 21.5777H31.7024V21.6841H31.822V21.5777H31.9948V21.6973H32.1144V21.5645H32.2739V21.8302C32.2739 21.8834 32.2473 21.91 32.2074 21.91H31.6227C31.5828 21.91 31.543 21.8834 31.543 21.8435V21.5777Z" stroke="black" stroke-width="0.123526"/>
<path d="M31.4643 22.3354V22.7873H30.9327V22.3354H31.4643Z" fill="#FFFF00" stroke="black" stroke-width="0.123526"/>
<path d="M32.873 22.3354V22.7873H32.3414V22.3354H32.873Z" fill="#FFFF00" stroke="black" stroke-width="0.123526"/>
<path d="M30.8395 21.9893H30.9989V22.1222H31.1186V21.9893H31.278V22.1222H31.3976V21.9893H31.5571V22.255C31.5571 22.3082 31.5305 22.3348 31.4907 22.3348H30.9192C30.8981 22.3348 30.8778 22.3264 30.8628 22.3114C30.8479 22.2965 30.8395 22.2762 30.8395 22.255V21.9893Z" fill="#FFFF00" stroke="black" stroke-width="0.123526"/>
<path d="M32.2484 21.9893H32.4079V22.1222H32.5275V21.9893H32.687V22.1222H32.8066V21.9893H32.966V22.255C32.966 22.3082 32.9395 22.3348 32.8996 22.3348H32.3281C32.307 22.3348 32.2867 22.3264 32.2718 22.3114C32.2568 22.2965 32.2484 22.2762 32.2484 22.255V21.9893Z" fill="#FFFF00" stroke="black" stroke-width="0.123526"/>
<path d="M31.8494 22.2021C31.8494 22.1234 31.9675 22.1234 31.9675 22.2021V22.4121H31.8494V22.2021Z" fill="black"/>
<path d="M31.1448 22.4943C31.1448 22.4153 31.25 22.4153 31.25 22.4943V22.6521H31.1448V22.4943Z" fill="black"/>
<path d="M32.5537 22.4943C32.5537 22.4153 32.6589 22.4153 32.6589 22.4943V22.6521H32.5537V22.4943Z" fill="black"/>
<path d="M38.4938 24.036C38.4805 23.3051 37.9622 23.1323 37.9622 23.1323C37.9489 23.1323 37.3908 23.3184 37.3908 24.0493H38.4938" fill="#FFFF00"/>
<path d="M38.9455 23.1456L39.0385 23.9828H38.4803C38.4803 23.2918 37.9487 23.1855 37.9487 23.1855C37.9355 23.1855 37.4172 23.3317 37.4039 23.9828H36.8457L36.952 23.1323H38.9455V23.1456ZM39.0783 23.9961H36.8192C36.7793 23.9961 36.7394 24.036 36.7394 24.0892C36.7394 24.1556 36.7793 24.1955 36.8192 24.1955H39.0783C39.1182 24.1955 39.1581 24.1556 39.1581 24.0892C39.1581 24.036 39.1182 23.9961 39.0651 23.9961H39.0783Z" fill="#FFFF00" stroke="black" stroke-width="0.123526"/>
<path d="M38.2551 23.9831C38.2551 23.5446 37.9494 23.425 37.9494 23.425C37.9494 23.425 37.6438 23.5579 37.6438 23.9831H38.2551ZM39.0259 22.7871H36.8597C36.8198 22.7871 36.78 22.8402 36.78 22.8934C36.78 22.9333 36.8198 22.9731 36.8597 22.9731H39.0259C39.0657 22.9731 39.1056 22.9333 39.1056 22.8801C39.1056 22.8402 39.0657 22.8004 39.0259 22.8004V22.7871ZM38.9727 22.9864H36.9261C36.8863 22.9864 36.8464 23.0263 36.8464 23.0794C36.8464 23.1326 36.8863 23.1725 36.9261 23.1725H38.986C39.0391 23.1725 39.0657 23.1326 39.0657 23.0794C39.0657 23.0263 39.0391 22.9864 38.986 22.9864H38.9727ZM38.3082 21.5777H38.1488V21.6841H38.0292V21.5777H37.8564V21.6973H37.7368V21.5645H37.5773V21.8302C37.5773 21.8834 37.6039 21.91 37.6438 21.91H38.2285C38.2684 21.91 38.3082 21.8834 38.3082 21.8435V21.5777ZM37.6969 21.9366L37.6571 22.7871H38.2285L38.1886 21.9233H37.6969" fill="#FFFF00"/>
<path d="M37.6969 21.9366L37.6571 22.7871H38.2285L38.1886 21.9233H37.6969M38.2551 23.9831C38.2551 23.5446 37.9494 23.425 37.9494 23.425C37.9494 23.425 37.6438 23.5579 37.6438 23.9831H38.2551ZM39.0259 22.7871H36.8597C36.8198 22.7871 36.78 22.8402 36.78 22.8934C36.78 22.9333 36.8198 22.9731 36.8597 22.9731H39.0259C39.0657 22.9731 39.1056 22.9333 39.1056 22.8801C39.1056 22.8402 39.0657 22.8004 39.0259 22.8004V22.7871ZM38.9727 22.9864H36.9261C36.8863 22.9864 36.8464 23.0263 36.8464 23.0794C36.8464 23.1326 36.8863 23.1725 36.9261 23.1725H38.986C39.0391 23.1725 39.0657 23.1326 39.0657 23.0794C39.0657 23.0263 39.0391 22.9864 38.986 22.9864H38.9727ZM38.3082 21.5777H38.1488V21.6841H38.0292V21.5777H37.8564V21.6973H37.7368V21.5645H37.5773V21.8302C37.5773 21.8834 37.6039 21.91 37.6438 21.91H38.2285C38.2684 21.91 38.3082 21.8834 38.3082 21.8435V21.5777Z" stroke="black" stroke-width="0.123526"/>
<path d="M38.3872 22.3354V22.7873H38.9188V22.3354H38.3872Z" fill="#FFFF00" stroke="black" stroke-width="0.123526"/>
<path d="M36.9786 22.3354V22.7873H37.5101V22.3354H36.9786Z" fill="#FFFF00" stroke="black" stroke-width="0.123526"/>
<path d="M39.0123 21.9893H38.8529V22.1222H38.7333V21.9893H38.5738V22.1222H38.4542V21.9893H38.2947V22.255C38.2947 22.3082 38.3213 22.3348 38.3611 22.3348H38.9326C38.9537 22.3348 38.974 22.3264 38.989 22.3114C39.0039 22.2965 39.0123 22.2762 39.0123 22.255V21.9893Z" fill="#FFFF00" stroke="black" stroke-width="0.123526"/>
<path d="M37.6031 21.9893H37.4437V22.1222H37.3241V21.9893H37.1646V22.1222H37.045V21.9893H36.8855V22.255C36.8855 22.3082 36.9121 22.3348 36.952 22.3348H37.5234C37.5446 22.3348 37.5648 22.3264 37.5798 22.3114C37.5947 22.2965 37.6031 22.2762 37.6031 22.255V21.9893Z" fill="#FFFF00" stroke="black" stroke-width="0.123526"/>
<path d="M38.002 22.2021C38.002 22.1234 37.8838 22.1234 37.8838 22.2021V22.4121H38.002V22.2021Z" fill="black"/>
<path d="M38.7065 22.4943C38.7065 22.4153 38.6013 22.4153 38.6013 22.4943V22.6521H38.7065V22.4943Z" fill="black"/>
<path d="M37.2976 22.4943C37.2976 22.4153 37.1924 22.4153 37.1924 22.4943V22.6521H37.2976V22.4943Z" fill="black"/>
<path d="M38.4933 30.1888C38.48 29.4579 37.9617 29.2852 37.9617 29.2852C37.9484 29.2852 37.3903 29.4712 37.3903 30.2021H38.4933" fill="#FFFF00"/>
<path d="M38.945 29.2984L39.038 30.1357H38.4798C38.4798 29.4446 37.9483 29.3383 37.9483 29.3383C37.935 29.3383 37.4167 29.4845 37.4034 30.1357H36.8452L36.9516 29.2852H38.945V29.2984ZM39.0779 30.149H36.8187C36.7788 30.149 36.7389 30.1888 36.7389 30.242C36.7389 30.3084 36.7788 30.3483 36.8187 30.3483H39.0779C39.1177 30.3483 39.1576 30.3084 39.1576 30.242C39.1576 30.1888 39.1177 30.149 39.0646 30.149H39.0779Z" fill="#FFFF00" stroke="black" stroke-width="0.123526"/>
<path d="M38.2546 30.1355C38.2546 29.6969 37.9489 29.5773 37.9489 29.5773C37.9489 29.5773 37.6433 29.7102 37.6433 30.1355H38.2546ZM39.0254 28.9394H36.8592C36.8193 28.9394 36.7795 28.9926 36.7795 29.0457C36.7795 29.0856 36.8193 29.1255 36.8592 29.1255H39.0254C39.0652 29.1255 39.1051 29.0856 39.1051 29.0324C39.1051 28.9926 39.0652 28.9527 39.0254 28.9527V28.9394ZM38.9722 29.1388H36.9256C36.8858 29.1388 36.8459 29.1786 36.8459 29.2318C36.8459 29.2849 36.8858 29.3248 36.9256 29.3248H38.9855C39.0387 29.3248 39.0652 29.2849 39.0652 29.2318C39.0652 29.1786 39.0387 29.1388 38.9855 29.1388H38.9722ZM38.3077 27.7301H38.1483V27.8364H38.0287V27.7301H37.8559V27.8497H37.7363V27.7168H37.5768V27.9826C37.5768 28.0357 37.6034 28.0623 37.6433 28.0623H38.228C38.2679 28.0623 38.3077 28.0357 38.3077 27.9959V27.7301ZM37.6964 28.0889L37.6566 28.9394H38.228L38.1881 28.0756H37.6964" fill="#FFFF00"/>
<path d="M37.6964 28.0889L37.6566 28.9394H38.228L38.1881 28.0756H37.6964M38.2546 30.1355C38.2546 29.6969 37.9489 29.5773 37.9489 29.5773C37.9489 29.5773 37.6433 29.7102 37.6433 30.1355H38.2546ZM39.0254 28.9394H36.8592C36.8193 28.9394 36.7795 28.9926 36.7795 29.0457C36.7795 29.0856 36.8193 29.1255 36.8592 29.1255H39.0254C39.0652 29.1255 39.1051 29.0856 39.1051 29.0324C39.1051 28.9926 39.0652 28.9527 39.0254 28.9527V28.9394ZM38.9722 29.1388H36.9256C36.8858 29.1388 36.8459 29.1786 36.8459 29.2318C36.8459 29.2849 36.8858 29.3248 36.9256 29.3248H38.9855C39.0387 29.3248 39.0652 29.2849 39.0652 29.2318C39.0652 29.1786 39.0387 29.1388 38.9855 29.1388H38.9722ZM38.3077 27.7301H38.1483V27.8364H38.0287V27.7301H37.8559V27.8497H37.7363V27.7168H37.5768V27.9826C37.5768 28.0357 37.6034 28.0623 37.6433 28.0623H38.228C38.2679 28.0623 38.3077 28.0357 38.3077 27.9959V27.7301Z" stroke="black" stroke-width="0.123526"/>
<path d="M38.3868 28.4883V28.9401H38.9183V28.4883H38.3868Z" fill="#FFFF00" stroke="black" stroke-width="0.123526"/>
<path d="M36.9781 28.4883V28.9401H37.5096V28.4883H36.9781Z" fill="#FFFF00" stroke="black" stroke-width="0.123526"/>
<path d="M39.0118 28.1431H38.8524V28.276H38.7328V28.1431H38.5733V28.276H38.4537V28.1431H38.2942V28.4089C38.2942 28.462 38.3208 28.4886 38.3607 28.4886H38.9321C38.9533 28.4886 38.9735 28.4802 38.9885 28.4652C39.0034 28.4503 39.0118 28.43 39.0118 28.4089V28.1431Z" fill="#FFFF00" stroke="black" stroke-width="0.123526"/>
<path d="M37.6027 28.1431H37.4432V28.276H37.3236V28.1431H37.1641V28.276H37.0445V28.1431H36.885V28.4089C36.885 28.462 36.9116 28.4886 36.9515 28.4886H37.5229C37.5441 28.4886 37.5644 28.4802 37.5793 28.4652C37.5943 28.4503 37.6027 28.43 37.6027 28.4089V28.1431Z" fill="#FFFF00" stroke="black" stroke-width="0.123526"/>
<path d="M38.0015 28.3545C38.0015 28.2757 37.8833 28.2757 37.8833 28.3545V28.5645H38.0015V28.3545Z" fill="black"/>
<path d="M38.7061 28.6466C38.7061 28.5677 38.6008 28.5677 38.6008 28.6466V28.8045H38.7061V28.6466Z" fill="black"/>
<path d="M37.2971 28.6466C37.2971 28.5677 37.1919 28.5677 37.1919 28.6466V28.8045H37.2971V28.6466Z" fill="black"/>
<path d="M36.0949 36.6021C36.6041 36.0776 36.3615 35.5881 36.3615 35.5881C36.3522 35.5787 35.8268 35.3138 35.3082 35.8288L36.0854 36.6115" fill="#FFFF00"/>
<path d="M37.0455 36.2945L36.5169 36.9505L36.1236 36.5544C36.614 36.0675 36.3149 35.6154 36.3149 35.6154C36.3055 35.606 35.8366 35.3412 35.3651 35.7906L34.9718 35.3946L35.6503 34.8707L37.0549 36.2852L37.0455 36.2945ZM36.5356 36.9881L34.9437 35.3851C34.9156 35.3568 34.8592 35.3566 34.8215 35.394C34.7743 35.4409 34.7742 35.4972 34.8022 35.5255L36.3941 37.1286C36.4222 37.1569 36.4786 37.1571 36.5258 37.1103C36.5635 37.0728 36.5637 37.0164 36.5262 36.9787L36.5356 36.9881Z" fill="#FFFF00" stroke="black" stroke-width="0.123526"/>
<path d="M35.9644 36.3947C36.2756 36.0857 36.1451 35.7845 36.1451 35.7845C36.1451 35.7845 35.8354 35.6613 35.5336 35.9609L35.9644 36.3947ZM37.3562 36.0989L35.8298 34.5618C35.8017 34.5335 35.7359 34.5427 35.6982 34.5802C35.6699 34.6082 35.6697 34.6646 35.6978 34.6929L37.2242 36.23C37.2523 36.2583 37.3086 36.2585 37.3464 36.221C37.3747 36.1929 37.3748 36.1365 37.3468 36.1082L37.3562 36.0989ZM37.1773 36.2016L35.7352 34.7494C35.7071 34.7211 35.6507 34.7209 35.613 34.7584C35.5753 34.7959 35.5751 34.8522 35.6032 34.8805L37.0546 36.3421C37.0921 36.3799 37.1391 36.3706 37.1768 36.3332C37.2145 36.2957 37.2241 36.2488 37.1866 36.211L37.1773 36.2016ZM37.7086 34.7375L37.5963 34.6244L37.5208 34.6993L37.4365 34.6144L37.512 34.5395L37.3902 34.4169L37.3054 34.5012L37.2211 34.4163L37.3154 34.3227L37.203 34.2095L37.0144 34.3968C36.9767 34.4343 36.9766 34.4719 37.0047 34.5001L37.4167 34.915C37.4448 34.9433 37.4917 34.9529 37.52 34.9248L37.7086 34.7375ZM37.0233 34.5566L36.3917 35.1276L36.7943 35.5331L37.3792 34.8961L37.0327 34.5472" fill="#FFFF00"/>
<path d="M37.0233 34.5566L36.3917 35.1276L36.7943 35.5331L37.3792 34.8961L37.0327 34.5472M35.9644 36.3947C36.2756 36.0857 36.1451 35.7845 36.1451 35.7845C36.1451 35.7845 35.8354 35.6613 35.5336 35.9609L35.9644 36.3947ZM37.3562 36.0989L35.8298 34.5618C35.8017 34.5335 35.7359 34.5427 35.6982 34.5802C35.6699 34.6082 35.6697 34.6646 35.6978 34.6929L37.2242 36.23C37.2523 36.2583 37.3086 36.2585 37.3464 36.221C37.3747 36.1929 37.3748 36.1365 37.3468 36.1082L37.3562 36.0989ZM37.1773 36.2016L35.7352 34.7494C35.7071 34.7211 35.6507 34.7209 35.613 34.7584C35.5753 34.7959 35.5751 34.8522 35.6032 34.8805L37.0546 36.3421C37.0921 36.3799 37.1391 36.3706 37.1768 36.3332C37.2145 36.2957 37.2241 36.2488 37.1866 36.211L37.1773 36.2016ZM37.7086 34.7375L37.5963 34.6244L37.5208 34.6993L37.4365 34.6144L37.512 34.5395L37.3902 34.4169L37.3054 34.5012L37.2211 34.4163L37.3154 34.3227L37.203 34.2095L37.0144 34.3968C36.9767 34.4343 36.9766 34.4719 37.0047 34.5001L37.4167 34.915C37.4448 34.9433 37.4917 34.9529 37.52 34.9248L37.7086 34.7375Z" stroke="black" stroke-width="0.123526"/>
<path d="M37.2272 35.3274L36.9066 35.6458L37.2812 36.023L37.6018 35.7046L37.2272 35.3274Z" fill="#FFFF00" stroke="black" stroke-width="0.123526"/>
<path d="M36.2347 34.3284L35.9141 34.6468L36.2886 35.0239L36.6093 34.7056L36.2347 34.3284Z" fill="#FFFF00" stroke="black" stroke-width="0.123526"/>
<path d="M37.9122 35.5273L37.7999 35.4142L37.7056 35.5078L37.6213 35.423L37.7156 35.3293L37.6032 35.2162L37.5089 35.3098L37.4246 35.2249L37.5189 35.1313L37.4066 35.0181L37.218 35.2054C37.1803 35.2429 37.1801 35.2805 37.2082 35.3088L37.6109 35.7142C37.6258 35.7292 37.646 35.7377 37.6672 35.7378C37.6883 35.7379 37.7086 35.7295 37.7236 35.7146L37.9122 35.5273Z" fill="#FFFF00" stroke="black" stroke-width="0.123526"/>
<path d="M36.9199 34.5283L36.8076 34.4152L36.7133 34.5088L36.629 34.4239L36.7233 34.3303L36.6109 34.2171L36.5166 34.3108L36.4323 34.2259L36.5266 34.1323L36.4143 34.0191L36.2257 34.2064C36.1879 34.2439 36.1878 34.2814 36.2159 34.3097L36.6186 34.7152C36.6335 34.7302 36.6537 34.7387 36.6749 34.7388C36.696 34.7388 36.7163 34.7305 36.7313 34.7156L36.9199 34.5283Z" fill="#FFFF00" stroke="black" stroke-width="0.123526"/>
<path d="M37.0505 34.9601C37.1064 34.9046 37.0231 34.8208 36.9673 34.8763L36.8183 35.0242L36.9015 35.108L37.0505 34.9601Z" fill="black"/>
<path d="M37.3392 35.6652C37.3952 35.6096 37.3211 35.535 37.2651 35.5906L37.1531 35.7018L37.2272 35.7765L37.3392 35.6652Z" fill="black"/>
<path d="M36.3467 34.6662C36.4027 34.6106 36.3285 34.5359 36.2725 34.5916L36.1605 34.7028L36.2347 34.7775L36.3467 34.6662Z" fill="black"/>
<path d="M30.9191 30.4152C30.9167 30.6957 31.0212 30.9666 31.2115 31.1727C31.3002 31.272 31.4087 31.3516 31.53 31.4065C31.6513 31.4614 31.7827 31.4904 31.9158 31.4917C32.1949 31.4917 32.4474 31.3588 32.6201 31.1727C32.8104 30.9666 32.9149 30.6957 32.9125 30.4152V28.98H30.9191V30.4152Z" fill="#003399"/>
<path d="M31.3838 29.7237C31.4936 29.7237 31.5826 29.6347 31.5826 29.5249C31.5826 29.4152 31.4936 29.3262 31.3838 29.3262C31.274 29.3262 31.1851 29.4152 31.1851 29.5249C31.1851 29.6347 31.274 29.7237 31.3838 29.7237Z" fill="white"/>
<path d="M32.4865 29.7237C32.5963 29.7237 32.6853 29.6347 32.6853 29.5249C32.6853 29.4152 32.5963 29.3262 32.4865 29.3262C32.3767 29.3262 32.2877 29.4152 32.2877 29.5249C32.2877 29.6347 32.3767 29.7237 32.4865 29.7237Z" fill="white"/>
<path d="M31.9284 30.255C32.0382 30.255 32.1271 30.166 32.1271 30.0562C32.1271 29.9464 32.0382 29.8574 31.9284 29.8574C31.8186 29.8574 31.7296 29.9464 31.7296 30.0562C31.7296 30.166 31.8186 30.255 31.9284 30.255Z" fill="white"/>
<path d="M31.3838 30.8126C31.4936 30.8126 31.5826 30.7236 31.5826 30.6138C31.5826 30.504 31.4936 30.415 31.3838 30.415C31.274 30.415 31.1851 30.504 31.1851 30.6138C31.1851 30.7236 31.274 30.8126 31.3838 30.8126Z" fill="white"/>
<path d="M32.4865 30.8126C32.5963 30.8126 32.6853 30.7236 32.6853 30.6138C32.6853 30.504 32.5963 30.415 32.4865 30.415C32.3767 30.415 32.2877 30.504 32.2877 30.6138C32.2877 30.7236 32.3767 30.8126 32.4865 30.8126Z" fill="white"/>
<path d="M30.9191 26.9592C30.9167 27.2397 31.0212 27.5105 31.2115 27.7167C31.3002 27.8159 31.4087 27.8955 31.53 27.9505C31.6513 28.0054 31.7827 28.0344 31.9158 28.0356C32.1949 28.0356 32.4474 27.9027 32.6201 27.7167C32.8104 27.5105 32.9149 27.2397 32.9125 26.9592V25.5239H30.9191V26.9592Z" fill="#003399"/>
<path d="M31.3838 26.2672C31.4936 26.2672 31.5826 26.1782 31.5826 26.0684C31.5826 25.9586 31.4936 25.8696 31.3838 25.8696C31.274 25.8696 31.1851 25.9586 31.1851 26.0684C31.1851 26.1782 31.274 26.2672 31.3838 26.2672Z" fill="white"/>
<path d="M32.4865 26.2672C32.5963 26.2672 32.6853 26.1782 32.6853 26.0684C32.6853 25.9586 32.5963 25.8696 32.4865 25.8696C32.3767 25.8696 32.2877 25.9586 32.2877 26.0684C32.2877 26.1782 32.3767 26.2672 32.4865 26.2672Z" fill="white"/>
<path d="M31.9284 26.7984C32.0382 26.7984 32.1271 26.7094 32.1271 26.5996C32.1271 26.4899 32.0382 26.4009 31.9284 26.4009C31.8186 26.4009 31.7296 26.4899 31.7296 26.5996C31.7296 26.7094 31.8186 26.7984 31.9284 26.7984Z" fill="white"/>
<path d="M31.3838 27.3565C31.4936 27.3565 31.5826 27.2675 31.5826 27.1578C31.5826 27.048 31.4936 26.959 31.3838 26.959C31.274 26.959 31.1851 27.048 31.1851 27.1578C31.1851 27.2675 31.274 27.3565 31.3838 27.3565Z" fill="white"/>
<path d="M32.4865 27.3565C32.5963 27.3565 32.6853 27.2675 32.6853 27.1578C32.6853 27.048 32.5963 26.959 32.4865 26.959C32.3767 26.959 32.2877 27.048 32.2877 27.1578C32.2877 27.2675 32.3767 27.3565 32.4865 27.3565Z" fill="white"/>
<path d="M28.1548 30.4152C28.1524 30.6957 28.257 30.9666 28.4472 31.1727C28.5359 31.272 28.6444 31.3516 28.7657 31.4065C28.887 31.4614 29.0184 31.4904 29.1515 31.4917C29.4306 31.4917 29.6831 31.3588 29.8559 31.1727C30.0461 30.9666 30.1506 30.6957 30.1482 30.4152V28.98H28.1548V30.4152Z" fill="#003399"/>
<path d="M28.6194 29.7237C28.7292 29.7237 28.8182 29.6347 28.8182 29.5249C28.8182 29.4152 28.7292 29.3262 28.6194 29.3262C28.5096 29.3262 28.4207 29.4152 28.4207 29.5249C28.4207 29.6347 28.5096 29.7237 28.6194 29.7237Z" fill="white"/>
<path d="M29.7222 29.7237C29.832 29.7237 29.921 29.6347 29.921 29.5249C29.921 29.4152 29.832 29.3262 29.7222 29.3262C29.6124 29.3262 29.5234 29.4152 29.5234 29.5249C29.5234 29.6347 29.6124 29.7237 29.7222 29.7237Z" fill="white"/>
<path d="M29.1643 30.255C29.2741 30.255 29.3631 30.166 29.3631 30.0562C29.3631 29.9464 29.2741 29.8574 29.1643 29.8574C29.0546 29.8574 28.9656 29.9464 28.9656 30.0562C28.9656 30.166 29.0546 30.255 29.1643 30.255Z" fill="white"/>
<path d="M28.6194 30.8126C28.7292 30.8126 28.8182 30.7236 28.8182 30.6138C28.8182 30.504 28.7292 30.415 28.6194 30.415C28.5096 30.415 28.4207 30.504 28.4207 30.6138C28.4207 30.7236 28.5096 30.8126 28.6194 30.8126Z" fill="white"/>
<path d="M29.7222 30.8126C29.832 30.8126 29.921 30.7236 29.921 30.6138C29.921 30.504 29.832 30.415 29.7222 30.415C29.6124 30.415 29.5234 30.504 29.5234 30.6138C29.5234 30.7236 29.6124 30.8126 29.7222 30.8126Z" fill="white"/>
<path d="M33.6831 30.4152C33.6807 30.6957 33.7853 30.9666 33.9755 31.1727C34.0643 31.272 34.1727 31.3516 34.294 31.4065C34.4153 31.4614 34.5467 31.4904 34.6798 31.4917C34.9589 31.4917 35.2114 31.3588 35.3842 31.1727C35.5744 30.9666 35.679 30.6957 35.6766 30.4152V28.98H33.6831V30.4152Z" fill="#003399"/>
<path d="M34.1479 29.7237C34.2576 29.7237 34.3466 29.6347 34.3466 29.5249C34.3466 29.4152 34.2576 29.3262 34.1479 29.3262C34.0381 29.3262 33.9491 29.4152 33.9491 29.5249C33.9491 29.6347 34.0381 29.7237 34.1479 29.7237Z" fill="white"/>
<path d="M35.2504 29.7237C35.3602 29.7237 35.4492 29.6347 35.4492 29.5249C35.4492 29.4152 35.3602 29.3262 35.2504 29.3262C35.1406 29.3262 35.0516 29.4152 35.0516 29.5249C35.0516 29.6347 35.1406 29.7237 35.2504 29.7237Z" fill="white"/>
<path d="M34.6924 30.255C34.8022 30.255 34.8912 30.166 34.8912 30.0562C34.8912 29.9464 34.8022 29.8574 34.6924 29.8574C34.5826 29.8574 34.4937 29.9464 34.4937 30.0562C34.4937 30.166 34.5826 30.255 34.6924 30.255Z" fill="white"/>
<path d="M34.1479 30.8126C34.2576 30.8126 34.3466 30.7236 34.3466 30.6138C34.3466 30.504 34.2576 30.415 34.1479 30.415C34.0381 30.415 33.9491 30.504 33.9491 30.6138C33.9491 30.7236 34.0381 30.8126 34.1479 30.8126Z" fill="white"/>
<path d="M35.2504 30.8126C35.3602 30.8126 35.4492 30.7236 35.4492 30.6138C35.4492 30.504 35.3602 30.415 35.2504 30.415C35.1406 30.415 35.0516 30.504 35.0516 30.6138C35.0516 30.7236 35.1406 30.8126 35.2504 30.8126Z" fill="white"/>
<path d="M30.9191 33.8439C30.9167 34.1244 31.0212 34.3953 31.2115 34.6014C31.3002 34.7007 31.4087 34.7803 31.53 34.8352C31.6513 34.8901 31.7827 34.9191 31.9158 34.9204C32.1949 34.9204 32.4474 34.7875 32.6201 34.6014C32.8104 34.3953 32.9149 34.1244 32.9125 33.8439V32.4087H30.9191V33.8439Z" fill="#003399"/>
<path d="M31.3838 33.1519C31.4936 33.1519 31.5826 33.0629 31.5826 32.9532C31.5826 32.8434 31.4936 32.7544 31.3838 32.7544C31.274 32.7544 31.1851 32.8434 31.1851 32.9532C31.1851 33.0629 31.274 33.1519 31.3838 33.1519Z" fill="white"/>
<path d="M32.4865 33.1519C32.5963 33.1519 32.6853 33.0629 32.6853 32.9532C32.6853 32.8434 32.5963 32.7544 32.4865 32.7544C32.3767 32.7544 32.2877 32.8434 32.2877 32.9532C32.2877 33.0629 32.3767 33.1519 32.4865 33.1519Z" fill="white"/>
<path d="M31.9284 33.6832C32.0382 33.6832 32.1271 33.5942 32.1271 33.4844C32.1271 33.3746 32.0382 33.2856 31.9284 33.2856C31.8186 33.2856 31.7296 33.3746 31.7296 33.4844C31.7296 33.5942 31.8186 33.6832 31.9284 33.6832Z" fill="white"/>
<path d="M31.3838 34.2413C31.4936 34.2413 31.5826 34.1523 31.5826 34.0425C31.5826 33.9327 31.4936 33.8438 31.3838 33.8438C31.274 33.8438 31.1851 33.9327 31.1851 34.0425C31.1851 34.1523 31.274 34.2413 31.3838 34.2413Z" fill="white"/>
<path d="M32.4865 34.2413C32.5963 34.2413 32.6853 34.1523 32.6853 34.0425C32.6853 33.9327 32.5963 33.8438 32.4865 33.8438C32.3767 33.8438 32.2877 33.9327 32.2877 34.0425C32.2877 34.1523 32.3767 34.2413 32.4865 34.2413Z" fill="white"/>
</g>
<defs>
<clipPath id="clip0_102_4312">
<rect width="79.736" height="59.802" fill="white" transform="translate(0.00836182 0.190918)"/>
</clipPath>
</defs>
</svg>
