<svg width="80" height="60" viewBox="0 0 80 60" fill="none" xmlns="http://www.w3.org/2000/svg">
<g clip-path="url(#clip0_102_4300)">
<path fill-rule="evenodd" clip-rule="evenodd" d="M0.0067749 0.0307617H79.7583V59.8327H0.0067749V0.0307617Z" fill="white"/>
<path fill-rule="evenodd" clip-rule="evenodd" d="M8.74396 18.1953L17.0392 5.75719L19.1122 7.13972L10.817 19.5778L8.74396 18.1953ZM11.8535 20.2691L20.1487 7.83099L22.2217 9.21352L13.9265 21.6516L11.8535 20.2691ZM14.963 22.3429L23.2582 9.90479L25.3312 11.2873L17.036 23.7254L14.963 22.3429Z" fill="black"/>
<path fill-rule="evenodd" clip-rule="evenodd" d="M54.3506 48.6108L62.6458 36.1727L64.7188 37.5552L56.4236 49.9934L54.3506 48.6108ZM57.4601 50.6846L65.7553 38.2465L67.8283 39.629L59.5331 52.0672L57.4601 50.6846ZM60.5696 52.7584L68.8648 40.3203L70.9379 41.7028L62.6427 54.141L60.5696 52.7584Z" fill="black"/>
<path fill-rule="evenodd" clip-rule="evenodd" d="M57.462 41.7012L67.8271 48.6138L57.462 41.7012Z" fill="black"/>
<path d="M57.462 41.7012L67.8271 48.6138" stroke="white" stroke-width="2.32364"/>
<path fill-rule="evenodd" clip-rule="evenodd" d="M27.4026 21.6538C29.6026 18.355 33.023 16.0653 36.9112 15.2883C40.7995 14.5114 44.8371 15.3109 48.1359 17.5109C51.4347 19.7109 53.7244 23.1313 54.5014 27.0195C55.2783 30.9078 54.4789 34.9454 52.2788 38.2442L27.4026 21.6538Z" fill="#CD2E3A"/>
<path fill-rule="evenodd" clip-rule="evenodd" d="M27.403 21.6551C25.203 24.9539 24.4035 28.9916 25.1804 32.8798C25.9574 36.7681 28.2471 40.1884 31.5459 42.3885C34.8447 44.5885 38.8824 45.388 42.7706 44.611C46.6589 43.8341 50.0792 41.5443 52.2792 38.2455C53.3793 36.5961 53.779 34.5773 53.3905 32.6332C53.002 30.6891 51.8572 28.9789 50.2078 27.8789C48.5584 26.7789 46.5396 26.3791 44.5954 26.7676C42.6513 27.1561 40.9411 28.3009 39.8411 29.9503L27.403 21.6551Z" fill="#0047A0"/>
<path d="M39.841 29.9497C42.1316 26.515 41.2042 21.8737 37.7695 19.583C34.3348 17.2924 29.6935 18.2198 27.4028 21.6545C25.1122 25.0892 26.0396 29.7305 29.4743 32.0211C32.909 34.3118 37.5503 33.3844 39.841 29.9497Z" fill="#CD2E3A"/>
<path fill-rule="evenodd" clip-rule="evenodd" d="M17.0734 54.1455L8.77817 41.7074L10.8512 40.3249L19.1464 52.763L17.0734 54.1455ZM20.1829 52.0717L11.8877 39.6336L13.9607 38.2511L22.2559 50.6892L20.1829 52.0717ZM23.2924 49.9979L14.9972 37.5598L17.0703 36.1773L25.3654 48.6154L23.2924 49.9979Z" fill="black"/>
<path fill-rule="evenodd" clip-rule="evenodd" d="M62.6799 23.7295L54.3847 11.2914L56.4578 9.90883L64.753 22.347L62.6799 23.7295ZM65.7895 21.6557L57.4943 9.21757L59.5673 7.83504L67.8625 20.2732L65.7895 21.6557ZM68.899 19.5819L60.6038 7.14377L62.6768 5.76124L70.972 18.1994L68.899 19.5819Z" fill="black"/>
<path fill-rule="evenodd" clip-rule="evenodd" d="M15.5166 46.1987L18.6261 44.1249L15.5166 46.1987ZM57.4953 18.2024L61.1231 15.783L57.4953 18.2024ZM64.2326 13.7092L67.3421 11.6354L64.2326 13.7092Z" fill="black"/>
<path d="M15.5166 46.1987L18.6261 44.1249M57.4953 18.2024L61.1231 15.783M64.2326 13.7092L67.3421 11.6354" stroke="white" stroke-width="2.32364"/>
</g>
<defs>
<clipPath id="clip0_102_4300">
<rect width="79.736" height="59.802" fill="white" transform="translate(0.00836182 0.027832)"/>
</clipPath>
</defs>
</svg>
