<svg width="68" height="51" viewBox="0 0 68 51" fill="none" xmlns="http://www.w3.org/2000/svg">
<g clip-path="url(#clip0_102_2070)">
<path fill-rule="evenodd" clip-rule="evenodd" d="M67.1646 50.1936H0.239746V0H67.1646V50.1936Z" fill="#000000"/>
<path d="M33.2397 10.125C25.0253 10.125 18.3647 16.7855 18.3647 25C18.3647 33.2145 25.0253 39.875 33.2397 39.875C41.4542 39.875 48.1147 33.2145 48.1147 25C48.1147 16.7855 41.4542 10.125 33.2397 10.125ZM33.2397 33.6328C32.506 33.6328 31.9116 33.0385 31.9116 32.3047C31.9116 31.5709 32.506 30.9766 33.2397 30.9766C33.9735 30.9766 34.5679 31.5709 34.5679 32.3047C34.5679 33.0385 33.9735 33.6328 33.2397 33.6328ZM35.3282 26.3447C35.0275 26.4608 34.7688 26.6649 34.5858 26.9302C34.4028 27.1956 34.304 27.5099 34.3022 27.8322V28.5859C34.3022 28.732 34.1827 28.8516 34.0366 28.8516H32.4429C32.2968 28.8516 32.1772 28.732 32.1772 28.5859V27.8721C32.1772 27.1051 32.3997 26.348 32.838 25.7172C33.2663 25.0996 33.864 24.6281 34.5679 24.3592C35.6968 23.9242 36.4272 22.9779 36.4272 21.9453C36.4272 20.4811 34.9962 19.2891 33.2397 19.2891C31.4833 19.2891 30.0522 20.4811 30.0522 21.9453V22.1977C30.0522 22.3438 29.9327 22.4633 29.7866 22.4633H28.1929C28.0468 22.4633 27.9272 22.3438 27.9272 22.1977V21.9453C27.9272 20.6404 28.4983 19.4219 29.5343 18.5154C30.5304 17.6422 31.8452 17.1641 33.2397 17.1641C34.6343 17.1641 35.9491 17.6455 36.9452 18.5154C37.9812 19.4219 38.5522 20.6404 38.5522 21.9453C38.5522 23.8645 37.2872 25.591 35.3282 26.3447Z" fill="white"/>
</g>
<defs>
<clipPath id="clip0_102_2070">
<rect width="66.9248" height="50.1936" fill="white" transform="translate(0.239746)"/>
</clipPath>
</defs>
</svg>
