<svg width="80" height="61" viewBox="0 0 80 61" fill="none" xmlns="http://www.w3.org/2000/svg">
<g clip-path="url(#clip0_102_4344)">
<path d="M18.7092 0.803223H61.0316V60.6052H18.6968L18.7092 0.803223Z" fill="white"/>
<path d="M-2.44586 0.803223H18.7091V60.6052H-2.44586V0.803223ZM61.0314 0.803223H82.1864V60.6052H61.0439L61.0314 0.803223ZM25.0506 29.7075L23.3936 30.2557L31.0432 36.9834C31.6288 38.6903 30.8439 39.2011 30.3456 40.0981L38.6431 39.0516L38.4437 47.3989L40.1755 47.3615L39.7893 39.064L48.0993 40.0607C47.5885 38.9768 47.1275 38.4037 47.6009 36.6719L55.2381 30.318L53.905 29.8196C52.8087 28.9724 54.3785 25.7581 54.6027 23.7273C54.6027 23.7273 50.155 25.2597 49.8684 24.4499L48.7222 22.2696L44.6607 26.7299C44.2246 26.842 44.0377 26.6676 43.9256 26.2938L45.7944 16.9747L42.8292 18.6441C42.58 18.7563 42.3309 18.6566 42.1814 18.37L39.3159 12.639L36.3756 18.5943C36.1513 18.8061 35.9271 18.831 35.7527 18.6815L32.8996 17.0993L34.6064 26.3312C34.4694 26.7049 34.1455 26.8046 33.7717 26.6053L29.8846 22.2073C29.3862 23.0172 29.0374 24.3378 28.3646 24.6368C27.6918 24.9233 25.4368 24.0762 23.9293 23.7647C24.4526 25.6086 26.0473 28.6983 25.0506 29.7075Z" fill="#D52B1E"/>
</g>
<defs>
<clipPath id="clip0_102_4344">
<rect width="79.736" height="59.802" fill="white" transform="translate(0.00842285 0.803223)"/>
</clipPath>
</defs>
</svg>
