<svg width="80" height="60" viewBox="0 0 80 60" fill="none" xmlns="http://www.w3.org/2000/svg">
<g clip-path="url(#clip0_102_4330)">
<path fill-rule="evenodd" clip-rule="evenodd" d="M0.00847626 0.190918H79.7444V59.9929H0.00847626V0.190918Z" fill="#229E45"/>
<path fill-rule="evenodd" clip-rule="evenodd" d="M40.0509 54.5111L77.614 30.1294L39.8266 5.67285L2.13892 30.1792L40.0509 54.5111Z" fill="#F8E509"/>
<path fill-rule="evenodd" clip-rule="evenodd" d="M56.4217 30.0919C56.4217 38.8504 49.3077 45.9519 40.5243 45.9519C37.3856 45.947 34.3188 45.0116 31.7116 43.2639C29.1044 41.5163 27.0739 39.0349 25.8767 36.1334C24.6795 33.232 24.3695 30.0407 24.9857 26.9631C25.602 23.8854 27.1169 21.0596 29.3389 18.8428C31.561 16.626 34.3904 15.1177 37.4695 14.5087C40.5486 13.8997 43.7391 14.2172 46.6377 15.4212C49.5364 16.6252 52.013 18.6616 53.7545 21.2729C55.496 23.8842 56.4241 26.9532 56.4217 30.0919Z" fill="#2B49A3"/>
<path fill-rule="evenodd" clip-rule="evenodd" d="M35.3043 39.5985L34.806 39.312L34.3076 39.5612L34.4197 39.0005L34.0211 38.5769L34.5817 38.5146L34.8558 38.0163L35.0925 38.5396L35.6407 38.6392L35.2296 39.013M45.9441 42.2896L45.4582 42.0031L44.9598 42.2523L45.0595 41.6916L44.6733 41.2805L45.2339 41.2182L45.4956 40.7074L45.7447 41.2306L46.2929 41.3303L45.8693 41.7165M41.3593 37.9789L40.9357 37.7297L40.4996 37.954L40.5993 37.4681L40.2504 37.1068L40.7488 37.057L40.973 36.6084L41.1724 37.0694L41.6583 37.1566L41.2845 37.493M52.1236 36.434L51.7 36.1849L51.264 36.4091L51.3636 35.9232L51.0272 35.5744L51.5131 35.5245L51.7374 35.0885L51.9367 35.537L52.4102 35.6242L52.0489 35.9481M41.1724 33.2072L40.674 32.9331L40.1757 33.1823L40.2753 32.6092L39.8891 32.1981L40.4498 32.1358L40.7114 31.625L40.9606 32.1482L41.5088 32.2479L41.0852 32.6466M28.0533 28.286L27.555 28.0119L27.0566 28.2611L27.1812 27.688L26.7701 27.2769L27.3432 27.2146L27.5923 26.7037L27.8415 27.227L28.3897 27.3267L27.9786 27.7129M29.6356 34.8393L29.1372 34.5528L28.6389 34.8019L28.751 34.2413L28.3523 33.8302L28.913 33.7554L29.1746 33.257L29.4238 33.7803L29.972 33.88L29.5608 34.2662M46.0064 25.8815L45.5579 25.6323L45.1093 25.8566L45.209 25.3582L44.8602 24.9844L45.3585 24.9221L45.5952 24.4736L45.807 24.9471L46.3054 25.0343L45.9316 25.3707M45.0969 30.1424L44.7605 29.943L44.3992 30.1174L44.4739 29.7188L44.1998 29.4322L44.5985 29.3824L44.7854 29.0335L44.9474 29.4073L45.3211 29.4696L45.047 29.7437M27.3307 36.0229L26.9943 35.836L26.6579 35.998L26.7327 35.6242L26.4711 35.3501L26.8448 35.3003L27.0192 34.9639L27.1812 35.3127L27.555 35.3875L27.2684 35.6367M52.2108 37.5429L51.9367 37.4058L51.6626 37.5304L51.7249 37.2438L51.5131 37.0445L51.8121 37.0071L51.9616 36.758L52.0862 37.0071L52.3977 37.0694L52.161 37.2563" fill="#FFFFEF"/>
<path fill-rule="evenodd" clip-rule="evenodd" d="M27.3307 36.0219L26.9943 35.835L26.6579 35.997L26.7327 35.6232L26.4711 35.3491L26.8448 35.2993L27.0192 34.9629L27.1812 35.3117L27.555 35.3865L27.2684 35.6357" fill="#FFFFEF"/>
<path fill-rule="evenodd" clip-rule="evenodd" d="M27.3307 36.0229L26.9943 35.836L26.6579 35.998L26.7327 35.6242L26.4711 35.3501L26.8448 35.3003L27.0192 34.9639L27.1812 35.3128L27.555 35.3875L27.2684 35.6367M32.5385 36.0104L32.2145 35.836L31.8781 35.998L31.9529 35.6242L31.6913 35.3501L32.065 35.3003L32.2395 34.9639L32.4014 35.3128L32.7752 35.375L32.4886 35.6367M31.8906 37.7547L31.5667 37.5678L31.2303 37.7422L31.305 37.3684L31.0434 37.0819L31.4172 37.0321L31.5916 36.6957L31.7536 37.0445L32.1273 37.1193L31.8408 37.3684M42.7297 34.6026L42.4058 34.4033L42.0569 34.5777L42.1317 34.2039L41.8825 33.9174L42.2563 33.88L42.4307 33.5436L42.5802 33.8925L42.954 33.9547L42.6799 34.2164M39.5527 34.5901L39.2164 34.4033L38.88 34.5777L38.9547 34.2039L38.7055 33.9174L39.0793 33.88L39.2537 33.5312L39.4032 33.8925L39.777 33.9547L39.5029 34.2164M30.9313 33.4938L30.7195 33.3692L30.5077 33.4689L30.5575 33.2321L30.3956 33.0577L30.6323 33.0328L30.7319 32.821L30.8316 33.0453L31.0683 33.0826L30.8939 33.2446M51.7997 38.9009L51.4758 38.714L51.1394 38.8884L51.2141 38.5146L50.9525 38.2281L51.3262 38.1783L51.5007 37.8419L51.6626 38.1907L52.0364 38.2655L51.7498 38.5146M49.1584 39.2622L48.8843 39.0878L48.5978 39.2373L48.6601 38.9133L48.4483 38.6891L48.7597 38.6517L48.9093 38.3651L49.0338 38.6642L49.3453 38.714L49.1086 38.9382M50.4043 39.2248L50.1551 39.0753L49.8935 39.1999L49.9433 38.9133L49.744 38.7015L50.0305 38.6642L50.1676 38.415L50.2922 38.6642L50.5787 38.7264L50.3669 38.9258M53.9924 36.0852L53.7432 35.9606L53.4941 36.0852L53.5564 35.7986L53.357 35.5868L53.6436 35.5495L53.7682 35.3003L53.8927 35.5619L54.1544 35.6118L53.955 35.8111M49.1211 41.0189L48.8096 40.8444L48.4732 40.9939L48.5479 40.6451L48.2988 40.3959L48.6725 40.3585L48.8345 40.0471L48.984 40.371L49.3578 40.4333L49.0712 40.67M49.146 42.4392L48.847 42.2647L48.5479 42.4267L48.6227 42.0779L48.386 41.8287L48.7224 41.7788L48.8719 41.4674L49.0089 41.7913L49.3453 41.8536L49.0961 42.1028M46.729 39.2248L46.4923 39.0753L46.2431 39.1999L46.2929 38.9258L46.106 38.714L46.3801 38.6891L46.5047 38.4399L46.6293 38.6891L46.9034 38.7389L46.7041 38.9382M44.4864 39.2248L44.2372 39.0753L43.988 39.1999L44.0503 38.9258L43.851 38.714L44.1376 38.6891L44.2621 38.4399L44.3867 38.6891L44.6484 38.7389L44.449 38.9382M40.6616 35.8734L40.4124 35.7363L40.1632 35.8609L40.2255 35.5744L40.0262 35.375L40.3003 35.3377L40.4248 35.0885L40.5494 35.3377L40.8235 35.4L40.6242 35.5868M41.0852 42.6883L40.8858 42.5762L40.6616 42.6883L40.7114 42.4392L40.5494 42.2647L40.7861 42.2398L40.8983 42.028L40.998 42.2523L41.2347 42.2896L41.0602 42.4516M35.3043 31.6623L34.806 31.3758L34.3076 31.625L34.4197 31.0643L34.0211 30.6532L34.5817 30.5784L34.8558 30.0801L35.0925 30.6033L35.6407 30.703L35.2296 31.0892" fill="#FFFFEF"/>
<path fill-rule="evenodd" clip-rule="evenodd" d="M55.3752 35.798C55.6838 34.9971 55.9255 34.172 56.0978 33.3311C47.6508 25.9182 38.2444 22.1183 26.3588 22.9032C25.9277 23.7373 25.5732 24.6088 25.2998 25.507C39.3781 24.1615 49.7189 30.3909 55.3752 35.798Z" fill="white"/>
<path d="M51.5878 31.6364L51.8744 31.7983C51.8316 31.8829 51.8184 31.9795 51.837 32.0724C51.8662 32.1626 51.9285 32.2383 52.0114 32.2842C52.0986 32.3465 52.1859 32.3839 52.2606 32.3714C52.3354 32.3714 52.3852 32.3341 52.4226 32.2842C52.4443 32.2512 52.4532 32.2113 52.4475 32.1721C52.4373 32.1261 52.4159 32.0833 52.3852 32.0475C52.3603 32.0101 52.298 31.9229 52.1983 31.8233C52.0959 31.7175 52.0191 31.5896 51.9741 31.4495C51.943 31.3434 51.951 31.2297 51.9968 31.1291C52.0425 31.0285 52.1229 30.9476 52.2232 30.9013C52.3139 30.8635 52.414 30.8548 52.5098 30.8764C52.6269 30.9034 52.7372 30.9543 52.8337 31.0259C53.0081 31.1505 53.1203 31.2751 53.1576 31.4246C53.1749 31.4945 53.1771 31.5673 53.1642 31.6381C53.1513 31.709 53.1236 31.7763 53.0829 31.8357L52.7839 31.6488C52.8212 31.5741 52.8337 31.4993 52.8088 31.437C52.7963 31.3747 52.7465 31.3124 52.6593 31.2626C52.5953 31.2111 52.517 31.1807 52.435 31.1754C52.4124 31.1746 52.3901 31.18 52.3703 31.191C52.3506 31.202 52.3342 31.2181 52.3229 31.2377C52.298 31.2751 52.298 31.3124 52.3104 31.3623C52.3229 31.4121 52.3852 31.5118 52.5098 31.6364C52.6344 31.761 52.7091 31.8731 52.759 31.9478C52.8034 32.0295 52.8236 32.1222 52.817 32.215C52.8103 32.3077 52.7772 32.3966 52.7216 32.4711C52.6633 32.5558 52.5808 32.6209 52.4849 32.658C52.3914 32.701 52.287 32.7141 52.1859 32.6954C52.0737 32.6704 51.9616 32.6206 51.837 32.5334C51.6501 32.4088 51.538 32.2718 51.5006 32.1223C51.46 31.9527 51.4868 31.7741 51.5754 31.6239L51.5878 31.6364ZM50.1426 30.6895L50.4541 30.8515C50.4155 30.9375 50.4067 31.034 50.4292 31.1256C50.461 31.2111 50.5231 31.282 50.6036 31.3249C50.7033 31.3872 50.778 31.4121 50.8528 31.3997C50.9275 31.3997 50.9774 31.3623 51.0147 31.3C51.0336 31.2703 51.0424 31.2354 51.0396 31.2003C51.0396 31.1629 51.0147 31.1131 50.9774 31.0757C50.9135 30.9987 50.847 30.9239 50.778 30.8515C50.641 30.7144 50.5538 30.6023 50.5288 30.5026C50.5085 30.4385 50.5024 30.3707 50.511 30.304C50.5196 30.2373 50.5427 30.1732 50.5787 30.1164C50.626 30.0395 50.6955 29.9787 50.778 29.942C50.8636 29.9025 50.9591 29.8895 51.0521 29.9046C51.1673 29.924 51.2775 29.9664 51.376 30.0292C51.5629 30.1538 51.675 30.2784 51.7124 30.4154C51.7351 30.4854 51.7424 30.5596 51.7338 30.6327C51.7252 30.7058 51.7009 30.7762 51.6626 30.839L51.3511 30.6646C51.3885 30.5774 51.4009 30.5151 51.376 30.4528C51.3511 30.3905 51.3013 30.3282 51.2141 30.2784C51.1451 30.2289 51.0622 30.2027 50.9774 30.2036C50.9569 30.205 50.9371 30.2114 50.9197 30.2223C50.9023 30.2331 50.8879 30.2481 50.8777 30.2659C50.8528 30.3033 50.8528 30.3407 50.8652 30.3905C50.8777 30.4403 50.9524 30.54 51.077 30.6646C51.2016 30.7892 51.2888 30.8888 51.3262 30.9636C51.3761 31.0417 51.4027 31.1325 51.4027 31.2252C51.4027 31.318 51.3761 31.4087 51.3262 31.4869C51.2725 31.5738 51.1946 31.6431 51.1019 31.6862C51.0085 31.7292 50.9041 31.7423 50.8029 31.7236C50.6747 31.7019 50.552 31.6554 50.4416 31.5865C50.2806 31.5007 50.1565 31.3589 50.0928 31.1879C50.0446 31.0215 50.0625 30.843 50.1426 30.6895ZM48.3735 30.2161L49.283 28.721L50.3793 29.4063L50.2298 29.6554L49.4325 29.1571L49.2331 29.4935L49.9807 29.9544L49.8187 30.2036L49.0712 29.7426L48.822 30.1538L49.6567 30.6521L49.5072 30.9013L48.3859 30.2161H48.3735ZM45.7945 28.0981L45.9316 27.8489L46.6043 28.1853L46.2929 28.8082C46.1932 28.8332 46.0686 28.8456 45.9191 28.8332C45.7755 28.8173 45.6362 28.7751 45.508 28.7086C45.3572 28.6351 45.2283 28.5234 45.1342 28.3846C45.0485 28.2557 45.005 28.1033 45.0096 27.9486C45.0159 27.7875 45.0585 27.6299 45.1342 27.4876C45.2091 27.3378 45.3205 27.2092 45.4581 27.1139C45.5898 27.0228 45.7466 26.9749 45.9066 26.9768C46.0312 26.9768 46.1558 27.0142 46.3053 27.1014C46.5047 27.1886 46.6293 27.3132 46.6915 27.4502C46.7563 27.5863 46.7696 27.7412 46.7289 27.8863L46.3925 27.7866C46.4131 27.7032 46.4043 27.6152 46.3676 27.5374C46.3302 27.4627 46.2679 27.4129 46.1683 27.363C46.1102 27.3299 46.0457 27.3094 45.9792 27.303C45.9126 27.2965 45.8454 27.3042 45.7821 27.3256C45.6575 27.363 45.5453 27.4752 45.4581 27.6496C45.3709 27.824 45.3335 27.986 45.3709 28.123C45.3881 28.188 45.4194 28.2484 45.4624 28.3001C45.5054 28.3518 45.5593 28.3934 45.6201 28.422C45.6824 28.4594 45.7571 28.4843 45.8319 28.4843C45.9062 28.4956 45.9818 28.4956 46.0562 28.4843L46.1558 28.285L45.7945 28.0981ZM34.5567 25.3198L34.8059 23.5756L35.3292 23.6628L35.4662 24.8837L35.9521 23.7624L36.4754 23.8372L36.2262 25.5565L35.8898 25.5067L36.1016 24.1487L35.5534 25.4568L35.217 25.407L35.08 23.9992L34.8807 25.3696L34.5567 25.3198ZM32.8 25.108L32.962 23.3638L34.2453 23.4884L34.2203 23.7874L33.2859 23.7002L33.2486 24.0739L34.1207 24.1611L34.0833 24.4601L33.2112 24.3729L33.1738 24.8464L34.1456 24.9336L34.1207 25.2326L32.8 25.108Z" fill="#309E3A"/>
<path d="M26.9817 24.024C26.9817 23.8371 27.0191 23.7001 27.0689 23.5755C27.1126 23.4869 27.1716 23.4067 27.2433 23.3388C27.3072 23.2743 27.3835 23.2234 27.4676 23.1892C27.5922 23.1519 27.7167 23.127 27.8413 23.127C28.103 23.127 28.3023 23.2266 28.4643 23.3761C28.5414 23.4714 28.5987 23.581 28.6329 23.6987C28.6672 23.8163 28.6776 23.9396 28.6636 24.0614C28.6636 24.3355 28.5764 24.5597 28.4144 24.7217C28.3312 24.7986 28.2327 24.8572 28.1254 24.8937C28.0181 24.9302 27.9044 24.9437 27.7915 24.9335C27.6801 24.9346 27.5697 24.9131 27.4669 24.8703C27.3641 24.8274 27.2711 24.7642 27.1935 24.6843C27.0384 24.5008 26.9623 24.2634 26.9817 24.024Z" fill="#309E3A"/>
<path d="M27.3429 24.024C27.3429 24.2109 27.3803 24.3604 27.4675 24.4725C27.5547 24.5722 27.6668 24.6345 27.8163 24.6345C27.881 24.639 27.9459 24.6291 28.0062 24.6054C28.0666 24.5817 28.1209 24.5448 28.1652 24.4975C28.2524 24.3978 28.2897 24.2483 28.3022 24.0365C28.3022 23.8371 28.2773 23.6876 28.1776 23.588C28.137 23.5378 28.0858 23.4972 28.0276 23.4692C27.9695 23.4412 27.9058 23.4264 27.8412 23.426C27.7757 23.4239 27.7105 23.4362 27.6502 23.462C27.5899 23.4879 27.5361 23.5266 27.4924 23.5755C27.3927 23.6752 27.3553 23.8247 27.3429 24.024Z" fill="#F7FFFF"/>
<path d="M29.0374 24.921L29.0624 23.1768H29.8099C29.9968 23.1768 30.1214 23.2017 30.2086 23.2391C30.2958 23.264 30.3581 23.3263 30.4079 23.401C30.4577 23.4758 30.4827 23.5754 30.4827 23.6876C30.4836 23.8074 30.4391 23.9232 30.3581 24.0115C30.266 24.0978 30.1474 24.1504 30.0217 24.161L30.2086 24.3105C30.2584 24.3603 30.3207 24.46 30.3954 24.5971L30.6072 24.9459H30.1836L29.9345 24.5472L29.7601 24.298C29.7298 24.2638 29.6912 24.238 29.6479 24.2233C29.5913 24.2068 29.5325 24.1984 29.4735 24.1984H29.3987V24.921H29.0374Z" fill="#309E3A"/>
<path d="M29.4113 23.9241H29.6605C29.8349 23.9241 29.947 23.9241 29.9844 23.8992C30.0218 23.8992 30.0591 23.8618 30.0841 23.8369C30.109 23.812 30.1214 23.7497 30.1214 23.7123C30.1214 23.6376 30.109 23.5877 30.0716 23.5628C30.0467 23.5254 29.9969 23.5005 29.947 23.488H29.6978L29.4113 23.4756V23.9116V23.9241Z" fill="white"/>
<path d="M31.031 23.2646L31.6789 23.302C31.8159 23.302 31.9281 23.3145 32.0028 23.3394C32.0998 23.3746 32.1857 23.4347 32.252 23.5138C32.3238 23.6009 32.3749 23.7032 32.4015 23.8128C32.4389 23.925 32.4513 24.062 32.4389 24.224C32.4388 24.3511 32.4177 24.4774 32.3766 24.5977C32.3267 24.7223 32.252 24.822 32.1648 24.8967C32.0922 24.9566 32.007 24.9991 31.9156 25.0213C31.8408 25.0462 31.7287 25.0462 31.6041 25.0462L30.9438 25.0089L31.031 23.2646Z" fill="#309E3A"/>
<path d="M31.3673 23.5762L31.305 24.7348H31.7784C31.8407 24.7348 31.8905 24.7099 31.9279 24.6725C31.9653 24.6352 32.0027 24.5853 32.0276 24.5106C32.0525 24.4358 32.0774 24.3237 32.0774 24.1867L32.065 23.8752C32.0472 23.8095 32.0129 23.7494 31.9653 23.7008C31.9239 23.6591 31.8724 23.6291 31.8158 23.6135C31.7216 23.5926 31.6257 23.5801 31.5292 23.5762H31.3673Z" fill="white"/>
<path d="M39.5775 26.379L39.9886 24.6846L40.5368 24.8092L40.9355 24.9337C41.0227 24.9836 41.0975 25.0583 41.1348 25.1705C41.1847 25.2701 41.1847 25.3823 41.1598 25.5193C41.1348 25.619 41.0975 25.7062 41.0352 25.7685C40.9895 25.8232 40.9323 25.8672 40.8677 25.8973C40.8031 25.9275 40.7327 25.943 40.6614 25.9429C40.5742 25.9429 40.4496 25.918 40.2877 25.8806L40.0759 25.8183L39.9264 26.4662L39.5775 26.379Z" fill="#309E3A"/>
<path d="M40.2501 25.0576L40.1504 25.531L40.3373 25.5809C40.4619 25.6058 40.5615 25.6307 40.6114 25.6183C40.6598 25.6115 40.705 25.59 40.7407 25.5565C40.7764 25.523 40.8009 25.4793 40.8107 25.4314C40.8107 25.3691 40.8107 25.3193 40.7858 25.2694C40.7585 25.2188 40.7144 25.1792 40.6612 25.1573L40.4245 25.095L40.2625 25.0576H40.2501Z" fill="white"/>
<path d="M41.1973 26.8643L41.7828 25.2197L42.468 25.4689C42.6549 25.5312 42.7671 25.5935 42.8418 25.6433C42.9041 25.7056 42.9539 25.7679 42.9664 25.8676C42.9788 25.9673 42.9913 26.0545 42.9664 26.1541C42.9166 26.2787 42.8418 26.3659 42.7421 26.4282C42.6425 26.4781 42.5179 26.4905 42.3684 26.4656C42.4182 26.5279 42.468 26.5902 42.493 26.6649L42.5926 27.0013L42.6674 27.3876L42.2812 27.2505L42.1566 26.802C42.1339 26.7006 42.1048 26.6007 42.0694 26.503C42.0528 26.4642 42.0272 26.43 41.9946 26.4033C41.9697 26.3659 41.9199 26.341 41.8326 26.3161L41.7704 26.2912L41.5212 26.9889L41.1973 26.8643Z" fill="#309E3A"/>
<path d="M41.8701 26.0298L42.1068 26.117C42.2688 26.1793 42.3684 26.2042 42.4183 26.2042C42.4556 26.2042 42.493 26.2042 42.5304 26.1668C42.5678 26.1419 42.5927 26.1045 42.6051 26.0547C42.6301 26.0049 42.6301 25.955 42.6051 25.9052C42.5867 25.8569 42.5513 25.817 42.5055 25.7931L42.2563 25.7059L42.0071 25.6187L41.8576 26.0298H41.8701Z" fill="white"/>
<path d="M43.2403 26.8031C43.2832 26.6573 43.3552 26.5216 43.4521 26.4045C43.5151 26.3293 43.5911 26.266 43.6764 26.2176C43.7536 26.174 43.838 26.1444 43.9255 26.1304C44.0501 26.1304 44.1747 26.1304 44.3118 26.1802C44.4231 26.2078 44.5274 26.2587 44.6176 26.3295C44.7078 26.4004 44.7819 26.4897 44.835 26.5913C44.9347 26.7907 44.9347 27.0274 44.86 27.3015C44.7983 27.537 44.646 27.7385 44.4364 27.8621C44.2495 27.9743 44.0252 27.9867 43.7885 27.912C43.6774 27.8837 43.5735 27.8325 43.4834 27.7617C43.3933 27.6909 43.319 27.602 43.2652 27.5008C43.2153 27.3919 43.1874 27.2742 43.1832 27.1545C43.1789 27.0347 43.1983 26.9153 43.2403 26.8031Z" fill="#309E3A"/>
<path d="M43.5892 26.9025C43.5393 27.0894 43.5269 27.2513 43.5892 27.3759C43.6515 27.5005 43.7387 27.5753 43.8757 27.6251C44.0003 27.6625 44.1249 27.65 44.2495 27.5753C44.3741 27.513 44.4488 27.3759 44.5111 27.1766C44.5734 26.9897 44.5734 26.8402 44.5111 26.7156C44.4865 26.6565 44.4492 26.6035 44.4018 26.5605C44.3545 26.5174 44.2982 26.4853 44.237 26.4664C44.1757 26.4453 44.1106 26.4377 44.046 26.4441C43.9815 26.4506 43.9191 26.4709 43.8633 26.5038C43.7387 26.5786 43.6515 26.7032 43.5892 26.9025Z" fill="white"/>
<path d="M46.6417 29.2329L47.4391 27.688L48.0994 28.0244C48.2239 28.0841 48.3375 28.1641 48.4358 28.2611C48.4981 28.3234 48.5355 28.3981 48.5355 28.4978C48.5355 28.5975 48.5355 28.6847 48.4856 28.7719C48.4377 28.8839 48.3485 28.9732 48.2364 29.0211C48.1119 29.046 47.9873 29.046 47.8502 28.9962C47.9001 29.0709 47.925 29.1457 47.9499 29.208C47.9748 29.2827 47.9873 29.3948 47.9997 29.5568L48.0246 29.9555L47.6509 29.7686L47.601 29.3076C47.5951 29.2031 47.5827 29.0991 47.5637 28.9962C47.5552 28.9496 47.5336 28.9063 47.5014 28.8716L47.3519 28.7844L47.2896 28.747L46.9532 29.3948L46.6417 29.2329Z" fill="#309E3A"/>
<path d="M47.4141 28.4973L47.6508 28.6219C47.8003 28.6967 47.9 28.7465 47.9373 28.7465C47.9747 28.7465 48.0246 28.7465 48.0619 28.7216C48.0993 28.7091 48.1242 28.6717 48.1491 28.6219C48.1741 28.5721 48.1865 28.5222 48.1741 28.4724C48.1587 28.4228 48.1282 28.3792 48.0868 28.3478C48.0139 28.303 47.9391 28.2615 47.8626 28.2232L47.6134 28.0986L47.4141 28.4973Z" fill="white"/>
<path d="M53.095 32.4216C53.1756 32.2935 53.2816 32.1832 53.4065 32.0977C53.4903 32.044 53.5832 32.006 53.6806 31.9855C53.771 31.9671 53.8642 31.9671 53.9547 31.9855C54.0792 32.0104 54.1914 32.0603 54.3035 32.135C54.4005 32.1954 54.4838 32.2754 54.5481 32.3698C54.6125 32.4641 54.6565 32.5709 54.6773 32.6832C54.7146 32.895 54.6523 33.1317 54.5028 33.3684C54.3778 33.5743 54.1762 33.7222 53.9422 33.7796C53.8307 33.8037 53.7153 33.8039 53.6036 33.7803C53.492 33.7567 53.3866 33.7097 53.2943 33.6425C53.1974 33.5821 53.1141 33.5022 53.0497 33.4078C52.9854 33.3134 52.9414 33.2067 52.9206 33.0944C52.8832 32.8701 52.9455 32.6458 53.095 32.4216Z" fill="#309E3A"/>
<path d="M53.4068 32.6211C53.2822 32.7831 53.2449 32.9326 53.2698 33.0696C53.279 33.1327 53.3015 33.1932 53.3359 33.2469C53.3702 33.3006 53.4157 33.3463 53.4691 33.3811C53.5937 33.4683 53.7183 33.4932 53.8429 33.4559C53.9675 33.4185 54.0921 33.3313 54.2042 33.1568C54.3163 32.9824 54.3661 32.8329 54.3412 32.7083C54.3288 32.5837 54.254 32.4716 54.1419 32.3844C54.0298 32.2972 53.8927 32.2847 53.7681 32.3221C53.6435 32.347 53.519 32.4467 53.3944 32.6211H53.4068Z" fill="white"/>
<path d="M37.609 25.6687L37.8956 24.4478L38.7926 24.6596L38.7552 24.8589L38.0949 24.7094L38.0326 24.9835L38.6431 25.1205L38.5933 25.3323L37.9828 25.1828L37.908 25.5192L38.5933 25.6812L38.5434 25.8805L37.609 25.6687Z" fill="#309E3A"/>
</g>
<defs>
<clipPath id="clip0_102_4330">
<rect width="79.736" height="59.802" fill="white" transform="translate(0.00847626 0.190918)"/>
</clipPath>
</defs>
</svg>
