<svg width="80" height="60" viewBox="0 0 80 60" fill="none" xmlns="http://www.w3.org/2000/svg">
<g clip-path="url(#clip0_102_4318)">
<path d="M0.00847626 0.027832H26.583V59.8298H0.00847626V0.027832Z" fill="#007A5E"/>
<path d="M26.5831 0.027832H53.17V59.8298H26.5831V0.027832Z" fill="#CE1126"/>
<path d="M53.1699 0.027832H79.7444V59.8298H53.1699V0.027832Z" fill="#FCD116"/>
<path d="M39.8766 22.8418L37.6617 29.575L41.0283 30.7268L39.8766 22.8418Z" fill="#FCD116"/>
<path d="M39.8765 22.8408L42.0914 29.5741L38.7248 30.7258L39.8765 22.8408Z" fill="#FCD116"/>
<path d="M46.6174 27.7383L39.5293 27.7125L39.4743 31.2703L46.6174 27.7383Z" fill="#FCD116"/>
<path d="M46.6172 27.7378L40.8979 31.9249L38.7622 29.079L46.6172 27.7378Z" fill="#FCD116"/>
<path d="M44.0423 35.6637L41.8765 28.9145L38.4759 29.9616L44.0423 35.6637Z" fill="#FCD116"/>
<path d="M44.0425 35.6644L38.2929 31.519L40.3396 28.6084L44.0425 35.6644Z" fill="#FCD116"/>
<path d="M35.7106 35.663L41.4602 31.5175L39.4135 28.6069L35.7106 35.663Z" fill="#FCD116"/>
<path d="M35.7106 35.6627L37.8764 28.9135L41.2771 29.9606L35.7106 35.6627Z" fill="#FCD116"/>
<path d="M33.1358 27.7378L38.855 31.9249L40.9907 29.079L33.1358 27.7378Z" fill="#FCD116"/>
<path d="M33.1358 27.7383L40.2239 27.7125L40.279 31.2703L33.1358 27.7383Z" fill="#FCD116"/>
</g>
<defs>
<clipPath id="clip0_102_4318">
<rect width="79.736" height="59.802" fill="white" transform="translate(0.00847626 0.027832)"/>
</clipPath>
</defs>
</svg>
